<svg xmlns="http://www.w3.org/2000/svg" width="175" height="63" viewBox="0 0 175 63" fill="none">
  <g clip-path="url(#clip0_3839_1038)">
    <path d="M141.952 10.3415C143.986 11.03 145.741 10.0963 147.7 10.6026C148.866 16.1347 149.762 21.7856 150.88 27.7216C151.222 26.5203 151.543 25.5893 151.749 24.6336C152.484 21.2313 153.176 17.8195 153.895 14.4135C154.159 13.1603 154.453 11.9133 154.747 10.5997C156.612 10.2841 158.402 10.5347 160.192 10.4499C161.292 16.1265 162.203 21.6968 164.012 27.0846C165.415 21.7796 166.341 16.3602 166.781 10.8905C168.531 10.0827 171.069 10.5687 173 10.5C173 12 172.681 13.0282 172.327 14.2887C170.888 20.3688 169.413 26.4405 167.963 32.518C167.739 33.4542 167.576 34.4049 167.384 35.3565C165.143 35.6065 163.006 36.11 160.779 35.6531C159.75 30.9088 158.73 26.2077 157.711 21.5066L157.359 21.5096C156.265 26.1672 155.172 30.8248 154.09 35.4305C152.723 35.8586 149.517 35.9222 147.336 35.565C145.576 27.3204 143.805 19.02 141.952 10.3415Z" fill="white"/>
    <path d="M102.21 15.9189L90.2154 15.4458C89.8119 17.0084 90.1428 18.4875 89.9806 20.0379C91.4562 20.3928 92.8787 20.1656 94.2813 20.2086C95.6441 20.2503 97.0092 20.2176 98.4792 20.2176C98.8042 21.8529 98.625 23.4461 98.5953 25.2124C95.5199 24.9726 92.4985 24.5655 89.4615 25.4949C90.4128 28.7476 89.9621 32.1287 90.0311 35.5461C88.2385 35.9446 86.7008 35.726 85.1861 35.7551C84.8649 34.2596 84.7959 12.8571 85.1102 10.4503H88.5568C89.7287 10.4503 90.9007 10.4504 92.0726 10.4506C93.1793 10.4517 94.3836 10.1793 95.368 10.5275C96.5781 10.9557 97.6478 10.1469 98.9717 10.6057V15.4993C100.157 15.3686 101.18 15.8452 102.133 14.9718V10.6155C103.745 10.3015 105.404 10.3142 107.011 10.6528C107.378 12.3802 107.161 14.0648 107.205 15.732C107.249 17.3586 107.218 18.9871 107.222 20.6148C107.227 22.3075 107.235 24.0003 107.238 25.693C107.241 27.3067 107.239 28.9204 107.239 30.6887H118.14V35.6856H116.336C116.235 35.3594 116.145 35.0667 116.046 34.7471C115.649 35.0971 115.265 35.4359 114.854 35.7976C112.809 35.451 110.721 35.4409 108.672 35.7677C106.627 36.0268 104.523 35.8243 102.555 35.8243C102.467 35.7521 102.382 35.6752 102.302 35.594C102.258 35.5506 102.227 35.4947 102.214 35.4335C102.21 28.9947 102.21 22.5559 102.21 15.9189Z" fill="white"/>
    <path d="M47.8539 26.0821V35.6785H43.0217C42.9045 35.321 42.8251 34.9522 42.7849 34.5782C42.7715 26.8335 42.7693 19.0888 42.7782 11.3441C42.7783 11.0968 42.8249 10.8495 42.8645 10.4571C46.2975 10.4571 49.6756 10.3004 53.0309 10.5102C55.4093 10.6589 57.1976 12.1725 58.6062 14.0625C58.9513 14.5255 59.2486 15.0241 59.5764 15.5193C59.5764 16.6869 59.5567 17.8586 59.5816 19.0294C59.6103 20.3839 59.3312 21.6 58.2724 22.554C58.0339 22.8417 57.8296 23.1562 57.6637 23.4911C59.2239 24.2694 59.7471 25.7423 59.8901 27.2698C60.1254 29.7826 60.1468 32.3157 60.2408 34.8408C60.2114 35.1183 60.1492 35.3914 60.0554 35.6542C58.4258 35.8292 56.8589 36.0335 55.2505 35.4778C55.1173 33.4154 54.9719 31.4873 54.8731 29.5568C54.7411 26.9799 53.8662 26.1185 51.2532 26.0844C50.2133 26.0708 49.1731 26.0821 47.8539 26.0821ZM47.887 21.2941C49.2709 21.6274 52.0012 21.6369 52.9862 21.2809C53.3938 21.1708 53.7682 20.9626 54.0768 20.6744C54.3854 20.3863 54.6187 20.0269 54.7564 19.6278C55.314 17.8506 54.3059 15.8876 52.4756 15.6017C50.954 15.363 49.4033 15.379 47.887 15.6491V21.2941Z" fill="white"/>
    <path d="M141.249 22.5561C141.077 26.6943 140.12 30.2667 137.46 33.0321C133.632 37.0127 127.546 37.8145 123.554 32.8597C121.757 30.6302 120.899 28.059 120.468 25.2443C119.982 22.0695 120.524 19.109 121.658 16.1719C122.398 14.2544 123.757 12.9294 125.45 11.8997C126.222 11.4307 127.087 11.1162 127.867 10.6599C129.321 9.8099 130.821 9.89265 132.373 10.2851C137.37 11.5481 139.872 15.0251 140.857 19.8359C141.063 20.8421 141.153 21.8721 141.249 22.5561ZM132.515 30.6748C133.241 30.0919 133.935 29.4718 134.596 28.8171C135.509 27.8322 135.831 26.5623 135.977 25.2607C136.377 21.6808 135.678 18.4616 132.882 15.8854L132.02 16.0803C131.895 15.9224 131.805 15.6813 131.656 15.6372C130.716 15.3915 129.722 15.4545 128.82 15.8169C127.918 16.1793 127.157 16.8219 126.649 17.6498C125.826 19.0334 125.634 20.5288 125.496 22.1023C125.298 24.1538 125.611 26.2225 126.408 28.1233C126.995 29.5288 128.08 30.1962 129.559 30.3329C130.454 30.4156 131.345 30.5378 132.515 30.6748Z" fill="white"/>
    <path d="M26.6253 10.5268H33.065C35.473 18.6933 37.6324 26.9068 40.0149 35.0851C39.3123 35.9138 38.3765 35.8147 37.4985 35.7944C36.5571 35.7726 35.5112 36.1085 34.745 35.1354C34.3806 34.0879 34.0023 32.9999 33.6217 31.9058H25.9088C25.5093 33.1239 25.0949 34.3872 24.6403 35.7733C22.9102 35.76 21.1945 35.9595 19.3411 35.6294C21.8016 27.15 24.2025 18.8761 26.6253 10.5268ZM29.6128 18.0946C29.0138 21.1913 27.9486 23.8721 27.436 26.9021C29.1272 26.7305 30.6463 27.0984 32.299 26.6412C31.2769 23.8541 31.1703 20.9019 29.6128 18.0946H29.6128Z" fill="white"/>
    <path d="M63.9472 11.1824C65.3924 9.77969 67.1588 10.8161 68.949 10.2934C68.949 12.1 68.9464 13.6402 68.9497 15.1804C68.953 16.7224 68.9327 18.2659 68.9657 19.7263C69.8967 20.0269 70.0512 19.414 70.3179 19.0069C71.9489 16.5164 73.5659 14.0167 75.1934 11.5239C75.4045 11.2007 75.649 10.8993 75.9167 10.5351H81.7817C79.2535 14.3033 76.7983 17.9627 74.2752 21.7233C76.9338 26.3137 79.5833 30.8883 82.3352 35.6397C81.1481 35.8749 80.1277 35.7538 79.1219 35.7743C78.0895 35.7954 77.0564 35.779 76.0284 35.779C73.7018 31.93 72.4268 27.6145 69.5022 24.2444C69.4491 24.1833 69.2638 24.2368 68.9339 24.2368V35.6659H64.2558C64.1687 35.5874 64.0869 35.5032 64.0108 35.4139C63.9709 35.3617 63.9457 35.2998 63.9381 35.2345C63.8975 27.5598 63.8608 19.8851 63.828 12.2103C63.8478 11.8657 63.8876 11.5225 63.9472 11.1824Z" fill="white"/>
    <path d="M2.10301 35.7283V30.9064C2.70268 30.4847 3.43528 30.7711 4.12125 30.7217C5.66633 30.6104 7.22926 30.6314 8.7558 30.4035C11.4618 29.9995 12.4728 28.9793 12.9508 26.3674C13.3849 24.1423 13.3807 21.854 12.9385 19.6305C12.7577 18.7651 12.2541 17.9672 11.8185 16.9546C11.9337 16.4055 12.088 15.6702 12.2422 14.9349L12.0202 14.8364L11.1932 16.3166C8.27357 15.4054 5.1742 15.2285 2.16983 15.8017C1.8858 14.0755 2.03459 12.3559 2.07557 10.5251C5.77832 10.3302 9.37504 10.3271 12.8283 11.6768C15.3041 12.6444 16.8347 14.5781 17.6143 17.0059C19.1462 21.7761 18.6581 26.4572 16.4447 30.9246C15.7643 32.298 14.9341 33.6316 13.1929 34.0133C12.7538 34.1095 12.4112 34.6458 12.0536 34.9546C8.73357 35.3424 5.49303 35.9435 2.10301 35.7283Z" fill="white"/>
    <path d="M51.4986 52.612H50.5188C49.5945 49.148 48.6699 45.6827 47.6408 41.8257C46.571 45.6706 45.6106 49.1223 44.643 52.6L43.6426 52.654C42.6007 48.5353 41.562 44.4289 40.5151 40.2904C41.1522 40.0292 41.3934 40.4213 41.5134 40.8774C42.0552 42.9365 42.5741 45.0017 43.0907 47.0674C43.4158 48.3675 43.7222 49.6723 44.1371 51.3895C45.2323 47.4171 46.2222 43.8265 47.2112 40.2391C47.4596 40.2061 47.6466 40.1813 47.9689 40.1385C49.2263 43.6863 49.6868 47.4767 51.0534 51.1365C52.0285 47.4609 52.9515 43.9737 53.8879 40.4901C53.9135 40.3948 54.083 40.3382 54.296 40.1827C54.6239 40.8045 54.4431 41.3818 54.2911 41.9608C53.3745 45.4513 52.4604 48.9424 51.4986 52.612Z" fill="white"/>
    <path d="M66.6565 47.0663C66.5682 49.1236 66.6824 50.8619 66.558 52.9449C66.1602 52.5101 65.8918 52.3537 65.8908 52.1955C65.8667 48.4242 65.8633 44.6528 65.8806 40.8812C65.8812 40.7064 66.028 40.5321 66.1473 40.2676C67.8 40.0491 69.473 40.0317 71.1299 40.2159C71.7861 40.2894 72.3947 40.5943 72.8464 41.0759C73.2981 41.5575 73.5635 42.1843 73.5948 42.8439C73.7172 44.7355 73.8112 44.9645 72.4726 46.5838L73.5237 47.7064C73.889 49.3487 74.1359 50.9554 73.6113 52.5975C72.6818 51.0889 73.7014 49.2032 72.409 47.4932C70.7823 46.6455 68.765 47.2982 66.6565 47.0663ZM66.7714 41.0065C66.4785 43.7183 66.5322 45.0085 67.0372 46.3774C68.9695 46.0157 71.285 47.2352 72.8072 44.9731V42.1404C72.4466 41.7613 72.0047 41.2968 71.7285 41.0065L66.7714 41.0065Z" fill="white"/>
    <path d="M16.7959 39.8307C19.7601 40.6395 21.0909 42.2706 21.2402 45.3014C21.3365 47.255 21.2802 49.1473 20.1721 50.9086C18.6524 53.3242 15.7931 53.721 13.756 51.7124C12.7925 50.7389 12.176 49.4755 12.0017 48.117C11.8422 46.8421 11.8925 45.5497 12.1508 44.2912C12.612 41.8647 13.964 40.1811 16.7959 39.8307ZM15.3019 40.9167C14.3412 41.5815 13.5774 42.2769 13.1923 43.2944C12.7572 44.3813 12.5551 45.5474 12.5989 46.7173C12.6427 47.8872 12.9315 49.0349 13.4466 50.0862C13.7169 50.7186 14.1683 51.2568 14.7439 51.6332C15.3196 52.0095 15.9937 52.2071 16.6814 52.201C18.1263 52.2334 19.0269 51.3506 19.7462 50.1567C20.6131 48.7176 20.4693 47.1614 20.48 45.6098C20.5283 44.6854 20.3317 43.7647 19.9101 42.9407C19.4885 42.1167 18.857 41.4185 18.0792 40.9167L15.3019 40.9167Z" fill="white"/>
    <path d="M59.1994 40.0986C60.3984 40.3244 60.4228 41.1038 60.6352 41.6589C61.1888 43.1055 61.6274 44.5958 62.1299 46.0624C62.7583 47.8962 63.4152 49.7203 64.0336 51.5574C64.1211 51.9691 64.1719 52.3878 64.1851 52.8086C62.932 52.104 63.2124 50.8204 62.4469 49.9902H56.7239C55.9824 50.7064 56.3827 52.1323 54.926 52.8561C55.5488 50.4223 56.3727 48.3745 57.0525 46.2822C57.7255 44.2111 58.4739 42.1721 59.1994 40.0986ZM62.3283 49.0532C61.4524 46.5356 60.6232 44.1521 59.6371 41.3177C58.6539 44.1629 57.8155 46.5894 56.9641 49.0532H62.3283Z" fill="white"/>
    <path d="M76.794 41.0215V45.9058C78.6235 45.9426 80.4023 45.9784 82.1811 46.0142L82.2443 46.3456C82.0102 46.4725 81.7784 46.7042 81.5417 46.7093C79.9959 46.7423 78.4491 46.7263 76.8198 46.7263V51.794C78.5833 52.1341 80.4469 51.6278 82.2006 52.2842C81.2727 52.8546 80.2623 52.6236 79.2944 52.6615C78.261 52.7021 77.2247 52.6707 76.2107 52.6707C75.8939 51.1425 75.8065 43.8485 76.045 40.3843C77.9494 39.9687 81.085 40.0393 82.4198 40.6325C80.4865 41.2231 78.6907 40.6947 76.794 41.0215Z" fill="white"/>
    <path d="M6.22097 39.8069C8.95064 40.5567 9.87091 41.6331 9.45036 43.8807C9.15461 43.3035 8.93408 42.9537 8.78827 42.575C8.09077 40.7635 6.643 40.1044 4.9661 40.8557C3.33468 41.5866 2.92983 42.8941 3.78349 44.6834C3.89122 44.8295 4.00797 44.9689 4.13301 45.1005C4.9172 45.4438 5.72759 45.7237 6.55645 45.9377C7.98837 46.2215 9.10058 46.8444 9.76178 48.2175C10.5003 50.9046 8.84465 52.9018 6.21591 52.995C5.69514 53.0258 5.17402 52.9404 4.69028 52.7451C4.20654 52.5498 3.77226 52.2494 3.41885 51.8657C2.74592 51.1373 2.22995 50.3514 2.56566 48.9264C3.58316 51.0529 4.63158 52.7615 7.4021 52.0602C8.15648 51.6882 9.0431 51.1041 9.10247 49.786C9.17158 48.2513 8.56294 47.2894 7.11855 46.8353C6.68721 46.7022 6.24877 46.5933 5.80526 46.5092C3.95372 46.1484 2.77085 45.1314 2.52552 43.1706C2.62599 40.9133 4.16186 40.1483 6.22097 39.8069Z" fill="white"/>
    <path d="M24.3573 52.8173C23.8606 52.5328 23.668 52.4742 23.6678 52.4149C23.6536 48.3926 23.6494 44.373 23.655 40.3563C25.8626 39.9771 28.9456 40.0495 30.3135 40.5896C29.2657 41.1312 28.3043 40.8582 27.402 40.904C26.442 40.9527 25.4777 40.915 24.4408 40.915V45.8304C26.1778 46.1671 28.0006 45.7642 30.1035 46.1096C29.6385 46.4331 29.4339 46.6977 29.2233 46.7025C27.67 46.738 26.1155 46.7217 24.3573 46.7217V52.8173Z" fill="white"/>
    <path d="M35.7238 52.6216C35.5291 52.624 35.3345 52.6084 35.1426 52.575C35.0853 52.5434 35.041 52.4925 35.0178 52.4314C34.9695 52.3149 34.9407 52.1914 34.9323 52.0656C34.9279 48.4295 34.9287 44.7934 34.9287 41.1158C33.7613 40.6304 32.4834 41.2203 31.2635 40.6301C32.4514 40.033 37.5662 39.9414 39.7312 40.464C39.3137 40.6752 39.0824 40.8871 38.8429 40.8968C37.8742 40.9361 36.903 40.9131 35.7238 40.9131V52.6216Z" fill="white"/>
  </g>
  <defs>
    <clipPath id="clip0_3839_1038">
      <rect width="172" height="43" fill="white" transform="translate(2 10)"/>
    </clipPath>
  </defs>
</svg>