<svg width="40" height="40" viewBox="0 0 40 40" fill="none" xmlns="http://www.w3.org/2000/svg">
  <path fill-rule="evenodd" clip-rule="evenodd" d="M11.6283 11.4444C8.65638 12.4444 6.57733 16.9999 4.69381 22.9444C4.36631 23.9781 3.92614 26.1608 4.01054 28C4.07892 29.4898 4.71897 30.7079 5.58694 31C7.0729 31.5 8.59357 30.9786 10.0448 30.3655C11.5788 29.7176 12.9893 28.7708 14.0074 28C15.9685 26.5153 18.4148 25.9559 20 25.9446C21.5852 25.9559 24.0315 26.5153 25.9926 28C27.0107 28.7708 28.4212 29.7176 29.9552 30.3655C31.4064 30.9786 32.9271 31.5 34.4131 31C35.281 30.7079 35.9211 29.4898 35.9895 28C36.0739 26.1608 35.6337 23.9781 35.3062 22.9444C33.4227 16.9999 31.3436 12.4444 28.3717 11.4444C26.3499 10.7642 24.3281 11.0095 22.4623 11.2358C21.6034 11.3401 20.7776 11.4402 20 11.4443C19.2225 11.4403 18.3966 11.3401 17.5377 11.2358C15.6719 11.0095 13.6501 10.7641 11.6283 11.4444ZM30.2331 19.825V19.3437V18.8625L31.6081 17.6938C31.7456 17.5562 31.7456 17.35 31.6769 17.2125L30.7831 15.7C30.7144 15.5625 30.5081 15.4937 30.3019 15.4937L28.5831 16.0438C28.3081 15.8375 28.0331 15.7 27.7581 15.5625L27.4144 13.8438C27.4144 13.6375 27.2081 13.5 27.0706 13.5H25.2831C25.0769 13.5 24.9394 13.6375 24.8706 13.8438L24.5269 15.5625C24.2519 15.7 23.9769 15.8375 23.7019 16.0438L21.9831 15.4937C21.7769 15.425 21.6394 15.4937 21.5019 15.7L20.6769 17.2125C20.5394 17.35 20.6081 17.5562 20.7456 17.6938L22.0519 18.8625V19.3437V19.825L20.7456 20.9937C20.6081 21.1312 20.6081 21.3375 20.6769 21.475L21.5706 22.9875C21.6394 23.125 21.8456 23.1937 22.0519 23.1937L23.7706 22.6437C24.0456 22.85 24.3206 22.9875 24.5956 23.125L24.5956 23.125L24.9394 24.8437C24.9394 25.05 25.0769 25.1875 25.2831 25.1875H27.0706C27.2769 25.1875 27.4144 25.05 27.4831 24.8437L27.8269 23.125L27.8269 23.125C28.1019 22.9875 28.3769 22.85 28.6519 22.6437L30.3706 23.1937C30.5769 23.2625 30.7144 23.1937 30.8519 22.9875L31.7456 21.475C31.8144 21.3375 31.8144 21.1312 31.6769 20.9937L30.2331 19.825ZM26.1769 21.0625C25.2144 21.0625 24.4581 20.3062 24.4581 19.3437C24.4581 18.3813 25.2144 17.625 26.1769 17.625C27.1394 17.625 27.8956 18.3813 27.8956 19.3437C27.8956 20.3062 27.1394 21.0625 26.1769 21.0625ZM15.1019 16.5C15.1019 15.6716 14.4304 15 13.6019 15C12.7735 15 12.1019 15.6716 12.1019 16.5V18H10.6019C9.7735 18 9.10193 18.6716 9.10193 19.5C9.10193 20.3284 9.7735 21 10.6019 21H12.1019V22.5C12.1019 23.3284 12.7735 24 13.6019 24C14.4304 24 15.1019 23.3284 15.1019 22.5V21H16.6019C17.4304 21 18.1019 20.3284 18.1019 19.5C18.1019 18.6716 17.4304 18 16.6019 18H15.1019V16.5Z" fill="white"/>
  </svg>
  