<svg width="170" height="22" viewBox="0 0 170 22" fill="none" xmlns="http://www.w3.org/2000/svg">
<path d="M11.5576 8.84272C11.5708 8.84483 11.583 8.85101 11.5926 8.86041C14.7911 11.3388 20.2679 17.4697 18.598 19.2013C16.6487 20.938 14.1472 21.8952 11.5576 21.8952C8.9681 21.8952 6.46653 20.938 4.51731 19.2013C2.84736 17.4697 8.32366 11.3388 11.5221 8.86041C11.532 8.85102 11.5443 8.84486 11.5576 8.84272ZM17.1292 1.6987C15.451 0.656069 13.5233 0.104492 11.5576 0.104492C9.59195 0.104492 7.66425 0.656069 5.98605 1.6987C5.97687 1.70369 5.96992 1.71206 5.96662 1.72211C5.96332 1.73215 5.96393 1.7431 5.96831 1.75271C5.97329 1.76166 5.98126 1.76849 5.99078 1.77195C6.00029 1.7754 6.01071 1.77525 6.02013 1.77152C8.09106 1.31587 11.2368 3.13763 11.5351 3.32053C11.5414 3.32591 11.5494 3.32886 11.5576 3.32886C11.5659 3.32886 11.5738 3.32591 11.5802 3.32053C11.8784 3.13763 15.0242 1.31587 17.0951 1.77152C17.1045 1.77525 17.115 1.7754 17.1245 1.77195C17.134 1.76849 17.142 1.76166 17.1469 1.75271C17.1513 1.7431 17.1519 1.73215 17.1486 1.72211C17.1453 1.71206 17.1384 1.70369 17.1292 1.6987ZM4.07107 3.23074C4.05352 3.24049 4.03755 3.25292 4.02369 3.2676C2.18171 5.12946 1.0672 7.61016 0.887928 10.2472C0.708657 12.8843 1.47686 15.4979 3.04933 17.6006C3.0553 17.6099 3.06429 17.6167 3.07471 17.6199C3.08514 17.6231 3.09633 17.6224 3.10632 17.618C3.11448 17.6116 3.12019 17.6025 3.12245 17.5922C3.12472 17.582 3.12339 17.5713 3.11871 17.562C2.30363 14.9942 6.47194 8.7688 8.62484 6.15862C8.6332 6.15022 8.63835 6.13907 8.63938 6.12716C8.63915 6.12011 8.63737 6.11321 8.63418 6.10695C8.63099 6.1007 8.62646 6.09526 8.62092 6.09103C5.35859 2.78507 4.25085 3.1364 4.07105 3.23074H4.07107ZM14.4944 6.09103C14.4888 6.09526 14.4843 6.1007 14.4811 6.10695C14.4779 6.11321 14.4761 6.12011 14.4759 6.12716C14.4769 6.13907 14.4821 6.15022 14.4904 6.15862C16.6433 8.76881 20.8116 14.9942 19.9966 17.562C19.9919 17.5713 19.9906 17.582 19.9928 17.5922C19.9951 17.6025 20.0008 17.6116 20.009 17.618C20.0189 17.6224 20.0301 17.6231 20.0406 17.6199C20.051 17.6167 20.06 17.6099 20.0659 17.6006C21.6384 15.4979 22.4066 12.8843 22.2273 10.2472C22.0481 7.61016 20.9336 5.12946 19.0916 3.2676C19.0777 3.25292 19.0617 3.24049 19.0442 3.23074C18.8644 3.1364 17.7567 2.78507 14.4944 6.09103ZM38.0825 17.7112H35.894L32.1271 12.4295L28.3602 17.7112H26.1717L31.0329 10.8952L26.5533 4.61431H28.7418L32.1271 9.361L35.5125 4.61431H37.7009L33.2213 10.8952L38.0825 17.7112ZM49.4423 13.9872C49.4423 15.1369 49.0676 16.0551 48.3286 16.7161C47.5904 17.3764 46.5171 17.7112 45.1385 17.7112H39.1103V11.8789H36.246L37.4376 10.2082H39.1103V4.61429H44.8865C46.1814 4.61429 47.1881 4.93062 47.8786 5.55451C48.2201 5.86306 48.4905 6.24461 48.6706 6.67192C48.8506 7.09923 48.9359 7.56177 48.9202 8.0265C48.9382 8.61265 48.7908 9.19176 48.4954 9.6951C48.2 10.1984 47.7691 10.6049 47.2537 10.8662C47.9054 11.0998 48.4725 11.5286 48.8808 12.0963C49.2566 12.6517 49.4528 13.3127 49.4423 13.9872H49.4423ZM41.0744 10.2082H44.7604C45.5023 10.2082 46.066 10.0386 46.4358 9.70409C46.8049 9.37015 46.9921 8.86129 46.9921 8.19157C47.0044 7.93479 46.9586 7.67856 46.8583 7.44264C46.7581 7.20672 46.606 6.9974 46.4137 6.83082C46.029 6.50514 45.4727 6.34003 44.7605 6.34003H41.0744V10.2082ZM47.4602 13.9505C47.4602 13.2628 47.2565 12.7401 46.8548 12.3971C46.4521 12.0533 45.8383 11.8789 45.0305 11.8789H41.0744V15.9855H45.0305C45.8145 15.9855 46.4222 15.808 46.8368 15.458C47.047 15.272 47.2124 15.0394 47.3205 14.7781C47.4285 14.5167 47.4763 14.2336 47.4602 13.9505ZM62.6487 11.1628C62.6603 12.1015 62.5154 13.0355 62.22 13.9248C61.9419 14.7348 61.504 15.4782 60.9333 16.1094C60.3747 16.7264 59.6903 17.2116 58.9282 17.5309C57.2815 18.1625 55.4655 18.1625 53.8189 17.5309C53.0606 17.2143 52.3816 16.7285 51.8318 16.1094C51.2549 15.484 50.8121 14.7432 50.5316 13.934C49.954 12.1349 49.954 10.1952 50.5315 8.39604C50.8139 7.58094 51.2563 6.83297 51.8317 6.19777C52.383 5.5836 53.0619 5.10261 53.8189 4.78993C55.4667 4.16447 57.2804 4.16447 58.9281 4.78993C59.6889 5.10524 60.3732 5.58562 60.9332 6.19763C61.5036 6.83433 61.9414 7.58222 62.22 8.3961C62.5151 9.28707 62.6601 10.2225 62.6487 11.1628ZM52.1345 11.1628C52.1345 12.7035 52.5267 13.9396 53.3 14.8365C53.6938 15.2684 54.1708 15.6128 54.7011 15.8484C55.2315 16.084 55.8038 16.2055 56.3824 16.2056C56.961 16.2056 57.5333 16.084 58.0637 15.8485C58.5941 15.613 59.0711 15.2686 59.4649 14.8368L59.465 14.8366C60.2265 13.9517 60.6126 12.7157 60.6126 11.1628C60.6126 9.60976 60.2265 8.36753 59.4649 7.47051C59.0681 7.04388 58.5902 6.7041 58.0602 6.4719C57.5302 6.23969 56.9594 6.11994 56.3825 6.11995C55.8056 6.11996 55.2347 6.23974 54.7047 6.47196C54.1748 6.70418 53.6968 7.04398 53.3 7.47062C52.5267 8.39177 52.1345 9.63404 52.1345 11.1628ZM68.8511 10.8952L73.3307 4.61431H71.1422L67.7569 9.361L64.3715 4.61431H62.1831L66.6627 10.8952L61.8015 17.7112H63.99L67.7569 12.4295L71.5238 17.7112H73.7123L68.8511 10.8952ZM90.0651 6.41332V10.2081H96.4515V11.8788H90.0651V15.9121H97.2846V17.7112H88.101V4.61422H97.2846V6.41332H90.0651ZM85.5465 11.6437C84.9048 11.045 83.8388 10.5807 82.378 10.2636L81.2618 10.0251C80.2015 9.79453 79.4652 9.51199 79.0728 9.18493C78.8759 9.02611 78.7197 8.8211 78.6176 8.58742C78.5154 8.35374 78.4703 8.09833 78.4861 7.84303C78.4753 7.58094 78.53 7.32033 78.6451 7.08568C78.7602 6.85103 78.9319 6.65002 79.1442 6.50152C79.583 6.18744 80.2275 6.02816 81.0598 6.02816C82.1306 6.02816 82.9171 6.22727 83.3975 6.62C83.8771 7.01205 84.1503 7.63384 84.2097 8.46799L84.2109 8.48582H86.1561L86.1557 8.46625C86.1317 7.18265 85.6903 6.15967 84.8438 5.42578C83.9981 4.69253 82.7189 4.32077 81.0418 4.32077C79.6517 4.32077 78.5333 4.64608 77.7176 5.28765C77.323 5.58719 77.0051 5.97914 76.7907 6.43032C76.5764 6.88151 76.4718 7.37866 76.486 7.87971C76.486 8.95635 76.8273 9.81273 77.5005 10.425C78.172 11.0359 79.1805 11.4817 80.4977 11.75L81.5958 11.9884C82.6804 12.2312 83.4413 12.5109 83.8573 12.8197C84.0599 12.969 84.2229 13.1672 84.3315 13.3967C84.4402 13.6261 84.4911 13.8794 84.4797 14.1339C84.4954 14.445 84.4343 14.7551 84.302 15.0359C84.1698 15.3168 83.9705 15.5593 83.7224 15.7414C83.2179 16.1102 82.4856 16.2972 81.5459 16.2972C80.4095 16.2972 79.5413 16.0518 78.9653 15.568C78.3904 15.0849 78.0898 14.3493 78.072 13.3815L78.0716 13.3627H76.1077L76.1079 13.3821C76.1199 14.8849 76.6038 16.0438 77.5461 16.8265C78.4874 17.6082 79.821 18.0046 81.5099 18.0046C83.0672 18.0046 84.3038 17.6515 85.1852 16.9552C85.6168 16.6192 85.9629 16.1827 86.1945 15.6821C86.426 15.1816 86.5362 14.6318 86.5158 14.0789C86.5356 13.6258 86.4592 13.1738 86.292 12.7535C86.1247 12.3333 85.8704 11.9548 85.5465 11.6437ZM109.098 16.0949L108.972 14.0599C108.979 13.4453 108.815 12.8413 108.501 12.3166C108.179 11.8643 107.712 11.5404 107.181 11.4003C107.803 11.203 108.345 10.8049 108.726 10.2659C109.119 9.67042 109.319 8.96396 109.297 8.24652C109.318 7.73863 109.221 7.23278 109.015 6.76981C108.809 6.30684 108.499 5.89972 108.11 5.58131C107.324 4.93959 106.233 4.6142 104.867 4.6142H99.2487V17.7112H101.213V12.3373H104.921C105.656 12.3373 106.197 12.5113 106.528 12.8543C106.859 13.1977 107.045 13.7951 107.08 14.6298L107.134 16.0233C107.146 16.7817 107.275 17.3468 107.516 17.7029L107.521 17.7112H109.545L109.528 17.6822C109.273 17.1912 109.126 16.6495 109.098 16.0949ZM101.213 6.33995H104.759C105.567 6.33995 106.196 6.51749 106.628 6.86765C106.849 7.05807 107.023 7.29863 107.136 7.56997C107.249 7.84132 107.298 8.13588 107.278 8.42994C107.296 8.73596 107.249 9.04234 107.14 9.32799C107.031 9.61365 106.862 9.8718 106.645 10.0847C106.157 10.4948 105.535 10.7026 104.903 10.6666H101.213V6.33995ZM111.071 17.7112H113.035V4.61421H111.071V17.7112ZM124.183 6.41332V4.61422H114.999V17.7112H124.183V15.9121H116.963V11.8788H123.35V10.2081H116.963V6.41332H124.183ZM134.649 11.6437C134.008 11.045 132.942 10.5807 131.481 10.2636L130.365 10.0251C129.304 9.79453 128.568 9.51199 128.176 9.18493C127.979 9.02611 127.823 8.8211 127.721 8.58742C127.618 8.35373 127.573 8.09833 127.589 7.84303C127.578 7.58094 127.633 7.32033 127.748 7.08568C127.863 6.85102 128.035 6.65001 128.247 6.50152C128.686 6.18744 129.33 6.02816 130.163 6.02816C131.234 6.02816 132.02 6.22727 132.5 6.62C132.98 7.01205 133.253 7.63384 133.313 8.46799L133.314 8.48582H135.259L135.259 8.46625C135.235 7.18265 134.793 6.15967 133.947 5.42578C133.101 4.69253 131.822 4.32077 130.145 4.32077C128.755 4.32077 127.636 4.64608 126.82 5.28765C126.426 5.58719 126.108 5.97913 125.894 6.43032C125.679 6.88151 125.575 7.37866 125.589 7.87971C125.589 8.95635 125.93 9.81273 126.603 10.425C127.275 11.0359 128.283 11.4817 129.601 11.75L130.699 11.9884C131.783 12.2312 132.544 12.5109 132.96 12.8197C133.163 12.969 133.326 13.1672 133.434 13.3967C133.543 13.6261 133.594 13.8794 133.583 14.1339C133.598 14.445 133.537 14.7551 133.405 15.0359C133.273 15.3168 133.073 15.5593 132.825 15.7414C132.321 16.1102 131.589 16.2972 130.649 16.2972C129.512 16.2972 128.644 16.0518 128.068 15.568C127.493 15.0849 127.193 14.3493 127.175 13.3815L127.175 13.3627H125.211L125.211 13.3821C125.223 14.8849 125.707 16.0438 126.649 16.8265C127.59 17.6082 128.924 18.0046 130.613 18.0046C132.17 18.0046 133.407 17.6515 134.288 16.9552C134.72 16.6192 135.066 16.1827 135.297 15.6821C135.529 15.1816 135.639 14.6318 135.619 14.0789C135.639 13.6258 135.562 13.1738 135.395 12.7535C135.228 12.3333 134.973 11.9548 134.649 11.6437H134.649ZM155.56 2.97718H154.578V19.3483H155.56V2.97718ZM146.568 10.8952L151.047 4.61431H148.859L145.474 9.36101L142.088 4.61431H139.9L144.379 10.8952L139.518 17.7112H141.707L145.474 12.4295L149.24 17.7112H151.429L146.568 10.8952ZM168.151 11.6437C167.509 11.0451 166.443 10.5807 164.982 10.2636L163.866 10.0252C162.806 9.79456 162.07 9.51202 161.677 9.18497C161.48 9.02614 161.324 8.82113 161.222 8.58745C161.12 8.35377 161.075 8.09836 161.091 7.84306C161.08 7.58097 161.134 7.32036 161.25 7.08571C161.365 6.85106 161.536 6.65005 161.749 6.50155C162.187 6.18747 162.832 6.0282 163.664 6.0282C164.735 6.0282 165.522 6.22731 166.002 6.62004C166.482 7.01208 166.755 7.63386 166.814 8.46802L166.815 8.48584H168.761L168.76 8.46628C168.736 7.18268 168.295 6.15972 167.448 5.42582C166.603 4.69258 165.323 4.32081 163.646 4.32081C162.256 4.32081 161.138 4.64612 160.322 5.28769C159.927 5.58723 159.61 5.97917 159.395 6.43036C159.181 6.88154 159.076 7.37869 159.09 7.87974C159.09 8.95638 159.432 9.81276 160.105 10.4251C160.777 11.0359 161.785 11.4817 163.102 11.75L164.2 11.9884C165.285 12.2313 166.046 12.5109 166.462 12.8197C166.664 12.969 166.827 13.1673 166.936 13.3967C167.045 13.6261 167.096 13.8794 167.084 14.1339C167.1 14.445 167.039 14.7551 166.906 15.0359C166.774 15.3168 166.575 15.5593 166.327 15.7414C165.822 16.1102 165.09 16.2972 164.15 16.2972C163.014 16.2972 162.146 16.0519 161.57 15.568C160.995 15.0849 160.694 14.3493 160.676 13.3816L160.676 13.3627H158.712L158.712 13.3821C158.724 14.885 159.208 16.0438 160.151 16.8265C161.092 17.6082 162.425 18.0046 164.114 18.0046C165.672 18.0046 166.908 17.6516 167.79 16.9552C168.221 16.6192 168.567 16.1827 168.799 15.6821C169.03 15.1816 169.141 14.6318 169.12 14.0789C169.14 13.6258 169.064 13.1738 168.896 12.7536C168.729 12.3333 168.475 11.9548 168.151 11.6437V11.6437Z" fill="white"/>
</svg>
