<svg width="40" height="40" viewBox="0 0 40 40" fill="none" xmlns="http://www.w3.org/2000/svg">
<path d="M16.2203 29.6312C25.4521 29.6312 30.5036 21.9755 30.5036 15.3478C30.5036 15.1325 30.5036 14.9171 30.4938 14.7017C31.4728 13.9968 32.3245 13.106 33 12.0976C32.0993 12.499 31.1301 12.7633 30.112 12.8906C31.1497 12.2738 31.9427 11.2851 32.3245 10.1103C31.3553 10.6879 30.2784 11.0991 29.133 11.3242C28.2128 10.3452 26.9107 9.73828 25.4716 9.73828C22.7011 9.73828 20.4495 11.9899 20.4495 14.7605C20.4495 15.152 20.4984 15.5338 20.5767 15.9059C16.4063 15.7003 12.7057 13.6934 10.2289 10.6585C9.79816 11.4025 9.55342 12.2641 9.55342 13.1843C9.55342 14.9269 10.4443 16.4639 11.7855 17.3645C10.9632 17.3352 10.1898 17.11 9.51425 16.738C9.51425 16.7576 9.51425 16.7772 9.51425 16.8065C9.51425 19.2344 11.2471 21.2707 13.5379 21.7308C13.1169 21.8483 12.6764 21.907 12.2162 21.907C11.8932 21.907 11.5799 21.8776 11.2764 21.8189C11.9128 23.816 13.7728 25.2649 15.9657 25.3041C14.2427 26.6551 12.0792 27.4578 9.72963 27.4578C9.32825 27.4578 8.92686 27.4382 8.53528 27.3893C10.7478 28.799 13.391 29.6312 16.2203 29.6312Z" fill="white"/>
</svg>
