<svg width="40" height="40" viewBox="0 0 40 40" fill="none" xmlns="http://www.w3.org/2000/svg">
<path fill-rule="evenodd" clip-rule="evenodd" d="M32.385 13.0777C32.5713 12.4565 32.385 12 31.4984 12H28.5665C27.821 12 27.4773 12.3943 27.2909 12.8292C27.2909 12.8292 25.7999 16.4634 23.6878 18.8241C23.0044 19.5074 22.6938 19.7248 22.321 19.7248C22.1347 19.7248 21.8649 19.5074 21.8649 18.8862V13.0777C21.8649 12.3322 21.6486 12 21.0273 12H16.42C15.9541 12 15.674 12.346 15.674 12.6739C15.674 13.3806 16.73 13.5436 16.8388 15.5316V19.8491C16.8388 20.7957 16.6679 20.9674 16.2951 20.9674C15.3012 20.9674 12.8835 17.3169 11.4495 13.1398C11.1685 12.328 10.8867 12 10.1373 12H7.20543C6.36774 12 6.2002 12.3943 6.2002 12.8292C6.2002 13.6057 7.19418 17.4574 10.8283 22.5514C13.2511 26.0303 16.6646 27.9161 19.7708 27.9161C21.6344 27.9161 21.865 27.4972 21.865 26.7758V24.1465C21.865 23.3088 22.0415 23.1416 22.6317 23.1416C23.0665 23.1416 23.812 23.359 25.5515 25.0364C27.5394 27.0243 27.8671 27.9161 28.9853 27.9161H31.9172C32.7549 27.9161 33.1738 27.4972 32.9321 26.6707C32.6677 25.8469 31.7186 24.6516 30.4592 23.2348C29.7758 22.4272 28.7508 21.5575 28.4402 21.1226C28.0053 20.5635 28.1296 20.315 28.4402 19.818C28.4402 19.818 32.0123 14.7861 32.385 13.0777Z" fill="white"/>
</svg>
