<svg width="40" height="40" viewBox="0 0 40 40" fill="none" xmlns="http://www.w3.org/2000/svg">
<path d="M19.9999 9.51222C23.4158 9.51222 23.8203 9.52527 25.1694 9.58681C26.4167 9.64374 27.0941 9.85209 27.5449 10.0273C28.1005 10.2324 28.6032 10.5594 29.0158 10.9843C29.4407 11.3969 29.7677 11.8995 29.9728 12.4552C30.148 12.906 30.3564 13.5833 30.4133 14.8306C30.4748 16.1796 30.4879 16.5842 30.4879 20.0002C30.4879 23.4161 30.4748 23.8206 30.4133 25.1697C30.3564 26.417 30.1479 27.0943 29.9728 27.5451C29.5424 28.6608 28.6606 29.5427 27.5449 29.973C27.0941 30.1482 26.4167 30.3566 25.1694 30.4135C23.8207 30.4751 23.4161 30.4881 19.9999 30.4881C16.5837 30.4881 16.1793 30.4751 14.8304 30.4135C13.5831 30.3566 12.9058 30.1482 12.4549 29.973C11.8993 29.768 11.3966 29.441 10.984 29.0161C10.5591 28.6034 10.2321 28.1008 10.027 27.5451C9.85184 27.0944 9.64343 26.417 9.58655 25.1697C9.52499 23.8207 9.51196 23.4161 9.51196 20.0002C9.51196 16.5842 9.52499 16.1797 9.58655 14.8306C9.64346 13.5833 9.85184 12.906 10.027 12.4552C10.2321 11.8995 10.5592 11.3969 10.9841 10.9842C11.3968 10.5593 11.8994 10.2323 12.455 10.0272C12.9058 9.85205 13.5832 9.64364 14.8305 9.58676C16.1795 9.52522 16.584 9.51217 20 9.51217L19.9999 9.51222ZM20 7.20715C16.5257 7.20715 16.0898 7.22188 14.7256 7.28414C13.3639 7.34629 12.434 7.56252 11.6202 7.87879C10.7666 8.20001 9.99338 8.70357 9.35437 9.35434C8.70346 9.99329 8.19977 10.7666 7.87842 11.6202C7.56241 12.434 7.34619 13.3639 7.28427 14.7256C7.22177 16.0899 7.20703 16.5257 7.20703 20C7.20703 23.4744 7.22177 23.9102 7.28427 25.2745C7.34644 26.6362 7.56265 27.5661 7.87894 28.3798C8.20016 29.2334 8.7037 30.0066 9.35449 30.6456C9.99347 31.2964 10.7667 31.8 11.6203 32.1212C12.4341 32.4375 13.364 32.6537 14.7257 32.7158C16.0901 32.7781 16.5258 32.7928 20.0001 32.7928C23.4744 32.7928 23.9103 32.7781 25.2746 32.7158C26.6363 32.6537 27.5662 32.4375 28.3799 32.1212C30.0983 31.4566 31.4567 30.0982 32.1213 28.3798C32.4376 27.566 32.6538 26.6361 32.7159 25.2745C32.7782 23.91 32.7929 23.4743 32.7929 20C32.7929 16.5257 32.7782 16.0899 32.7159 14.7256C32.6538 13.3639 32.4376 12.434 32.1213 11.6202C31.8001 10.7666 31.2965 9.99338 30.6458 9.35439C30.0067 8.70349 29.2334 8.19983 28.3797 7.87853C27.5659 7.56252 26.636 7.34629 25.2744 7.28439C23.9101 7.22188 23.4743 7.20715 19.9999 7.20715H20Z" fill="white"/>
<path d="M20 13.4307C16.3718 13.4307 13.4307 16.3718 13.4307 20C13.4307 23.6281 16.3718 26.5693 20 26.5693C23.6281 26.5693 26.5693 23.6281 26.5693 20C26.5693 16.3718 23.6281 13.4307 20 13.4307ZM20 24.2642C17.6449 24.2642 15.7357 22.355 15.7358 19.9999C15.7358 17.6448 17.645 15.7357 20.0001 15.7357C22.3551 15.7358 24.2643 17.6449 24.2643 20C24.2643 22.3551 22.3551 24.2642 20 24.2642Z" fill="white"/>
<path d="M26.8288 14.7062C27.6766 14.7062 28.364 14.0189 28.364 13.1711C28.364 12.3233 27.6766 11.636 26.8288 11.636C25.981 11.636 25.2937 12.3233 25.2937 13.1711C25.2937 14.0189 25.981 14.7062 26.8288 14.7062Z" fill="white"/>
</svg>
