<svg width="32" height="32" viewBox="0 0 32 32" fill="none" xmlns="http://www.w3.org/2000/svg">
<g opacity="0.8" clip-path="url(#clip0)">
<path d="M15.5471 0C7.40336 0 0.634574 6.44293 0 14.7114L8.35522 18.255C9.09556 17.7181 9.94166 17.5033 10.8935 17.5033C10.9993 17.5033 11.105 17.5033 11.105 17.5033L14.8067 12.0268C14.8067 12.0268 14.8067 12.0268 14.8067 11.9194C14.8067 8.59057 17.4508 5.90602 20.7294 5.90602C24.008 5.90602 26.6521 8.59057 26.6521 11.9194C26.6521 15.2483 24.008 17.9328 20.7294 17.9328H20.6236L15.3355 21.7986C15.3355 21.906 15.3355 21.906 15.3355 22.0133C15.3355 24.4831 13.3261 26.5234 10.8935 26.5234C8.77827 26.5234 6.98031 24.9127 6.55726 22.8724L0.528812 20.4026C2.43253 27.0603 8.46098 31.9999 15.5471 31.9999C24.2196 31.9999 31.1999 24.8053 31.1999 15.9999C31.1999 7.1946 24.2196 0 15.5471 0Z" fill="white"/>
<path d="M9.83591 24.2684L7.93219 23.4093C8.24948 24.161 8.88405 24.6979 9.62439 25.1274C11.3166 25.8791 13.2203 25.02 13.9606 23.3019C14.2779 22.4429 14.2779 21.5838 13.9606 20.7247C13.6434 19.8657 13.0088 19.2214 12.1627 18.8993C11.3166 18.5771 10.4705 18.5771 9.73015 18.8993L11.7396 19.7583C13.0088 20.2952 13.5376 21.7986 13.0088 22.9798C12.48 24.161 10.9993 24.8053 9.83591 24.2684Z" fill="white"/>
<path d="M17.768 11.9194C17.768 10.2013 19.0372 8.91272 20.7294 8.91272C22.3158 8.91272 23.6907 10.3087 23.6907 11.9194C23.6907 13.6375 22.4216 14.9261 20.7294 14.9261C19.1429 14.9261 17.768 13.5302 17.768 11.9194ZM24.6426 11.9194C24.6426 9.6644 22.8446 7.94628 20.7294 7.94628C18.6141 7.94628 16.8162 9.77178 16.8162 11.9194C16.8162 14.1744 18.6141 15.8926 20.7294 15.8926C22.8446 15.8926 24.6426 14.0671 24.6426 11.9194Z" fill="white"/>
</g>
<defs>
<clipPath id="clip0">
<rect width="31.1999" height="31.9999" fill="white"/>
</clipPath>
</defs>
</svg>
