<svg width="40" height="40" viewBox="0 0 40 40" fill="none" xmlns="http://www.w3.org/2000/svg">
<path d="M22.3087 21.9691C23.0212 21.9691 23.5988 21.3611 23.5988 20.6111C23.5988 19.8611 23.0212 19.2531 22.3087 19.2531C21.5962 19.2531 21.0186 19.8611 21.0186 20.6111C21.0186 21.3611 21.5962 21.9691 22.3087 21.9691Z" fill="white"/>
<path d="M17.6914 21.9691C18.4039 21.9691 18.9815 21.3611 18.9815 20.6111C18.9815 19.8611 18.4039 19.2531 17.6914 19.2531C16.9789 19.2531 16.4012 19.8611 16.4012 20.6111C16.4012 21.3611 16.9789 21.9691 17.6914 21.9691Z" fill="white"/>
<path d="M28.3518 9H11.5803C10.1543 9 9 10.1543 9 11.5123V28.0123C9 29.4383 10.1543 30.5247 11.5803 30.5247H25.8395L25.1605 28.284L26.7901 29.7099L28.2839 31.0679L31 33.3765V28.0123V26.7901V11.5123C30.9321 10.1543 29.7778 9 28.3518 9ZM23.5309 24.9568C23.5309 24.9568 23.0555 24.4136 22.716 23.9383C24.3457 23.463 24.9568 22.5123 24.9568 22.5123C24.4136 22.8519 23.9383 23.0556 23.5309 23.2593C22.9197 23.5309 22.3087 23.6667 21.6975 23.8025C20.4753 24.0062 19.3889 23.9383 18.4383 23.8025C17.6913 23.6667 17.0802 23.463 16.6049 23.2593C16.3333 23.1235 15.9938 22.9877 15.6543 22.8519C15.5864 22.8519 15.5864 22.784 15.5185 22.784H15.4506C15.2469 22.6481 15.1111 22.5802 15.1111 22.5802C15.1111 22.5802 15.7222 23.5309 17.2839 24.0062C16.8765 24.4815 16.4691 25.0247 16.4691 25.0247C13.6852 24.9568 12.6667 23.1914 12.6667 23.1914C12.6667 19.2531 14.5 16.0617 14.5 16.0617C16.3333 14.7037 18.0309 14.7716 18.0309 14.7716L18.1667 14.9074C15.9259 15.4506 14.9074 16.4691 14.9074 16.4691C14.9074 16.4691 15.179 16.3333 15.6543 16.1296C17.0124 15.5864 18.0309 15.3827 18.5062 15.3827C18.5741 15.3827 18.642 15.3827 18.7099 15.3827C19.4568 15.3148 20.3395 15.2469 21.2222 15.3827C22.4445 15.5185 23.6667 15.858 25.0247 16.537C25.0247 16.537 24.0062 15.5864 21.9012 14.9753L22.1049 14.7716C22.1049 14.7716 23.8025 14.7037 25.6358 16.0617C25.6358 16.0617 27.4691 19.2531 27.4691 23.1914C27.4012 23.1235 26.3148 24.8889 23.5309 24.9568Z" fill="white"/>
</svg>
