<svg width="33" height="32" viewBox="0 0 33 32" fill="none" xmlns="http://www.w3.org/2000/svg">
<g>
<path d="M4.9015 4.64001C1.79722 7.52001 0 11.52 0 16C0 19.68 1.30707 23.04 3.26767 25.76C3.26767 25.76 3.26767 25.76 3.43105 25.76C3.43105 25.76 3.43105 25.76 3.43105 25.6C2.12398 21.92 8.49593 12.8 11.927 8.96C6.37195 3.36 4.9015 4.64001 4.9015 4.64001Z" fill="white"/>
<path d="M27.7752 4.64004C30.7161 7.52004 32.6767 11.52 32.6767 16C32.6767 19.68 31.3696 23.04 29.409 25.76C29.409 25.76 29.409 25.76 29.2456 25.76C29.2456 25.76 29.2456 25.76 29.2456 25.6C30.5527 21.76 24.1807 12.64 20.9131 8.80004C26.3047 3.36004 27.7752 4.64004 27.7752 4.64004Z" fill="white"/>
<path d="M16.3383 0C19.606 0 22.3835 0.96 24.8343 2.4C21.5666 1.76 16.8285 4.48 16.3383 4.8C15.0313 4 10.6199 1.76 7.84241 2.4C7.84241 2.4 7.84241 2.4 7.84241 2.24C10.2932 0.96 13.0707 0 16.3383 0Z" fill="white"/>
<path d="M16.3383 12.8C21.2398 16.48 29.5724 25.44 27.1216 28C24.1807 30.56 20.4229 32 16.3383 32C12.2537 32 8.49592 30.56 5.55502 28C3.10427 25.44 11.4368 16.48 16.3383 12.8Z" fill="white"/>
</g>
</svg>
