<svg width="121" height="26" viewBox="0 0 121 26" fill="none" xmlns="http://www.w3.org/2000/svg">
<g clip-path="url(#clip0)">
<path fill-rule="evenodd" clip-rule="evenodd" d="M2.53891 22.0727C-0.121732 21.3213 -0.573516 19.7702 0.642638 18.8764C1.76721 18.0478 3.67936 17.429 3.67936 17.429L11.5758 14.6428V17.8174L5.8931 19.8353C4.88819 20.1972 4.73434 20.6989 5.55121 20.9631C6.36809 21.2272 7.84432 21.1524 8.84801 20.7954L11.5734 19.8136V22.6541C11.4012 22.6855 11.2071 22.7156 11.03 22.7446C8.18631 23.2027 5.27253 22.9722 2.53891 22.0727ZM19.1988 22.4032L28.0598 19.2793C29.066 18.9174 29.2198 18.4181 28.4029 18.1539C27.5861 17.8898 26.1098 17.9646 25.1061 18.3228L19.2012 20.3805V17.1009L19.5431 16.9864C20.8772 16.56 22.2526 16.2718 23.647 16.1264C26.0463 15.8646 28.9842 16.1625 31.2895 17.0262C33.8891 17.8391 34.1821 19.0368 33.5215 19.8618C32.861 20.6869 31.2419 21.2743 31.2419 21.2743L19.2012 25.5549L19.1988 22.4032ZM20.2354 2.07098C24.901 3.6619 26.4822 5.64242 26.4822 10.1052C26.4822 14.4534 23.7789 16.1022 20.3453 14.4558V6.34682C20.3453 5.39636 20.1695 4.52069 19.2708 4.27222C18.5821 4.0527 18.1548 4.68835 18.1548 5.6388V25.9324L12.6454 24.1956V0C14.9886 0.431805 18.4014 1.44739 20.2354 2.06615V2.07098ZM32.0795 24.2824C32.0835 24.3143 32.0796 24.3467 32.0681 24.3767C32.0566 24.4068 32.0379 24.4336 32.0135 24.4549C31.9532 24.4917 31.8829 24.5094 31.8121 24.5056H31.3884V24.0725H31.8377C31.8879 24.0706 31.938 24.0797 31.9842 24.0991C32.0168 24.1168 32.0432 24.1437 32.0602 24.1764C32.0771 24.2091 32.0839 24.246 32.0795 24.2824ZM32.3835 25.2691C32.3714 25.2618 32.3611 25.2519 32.3533 25.2403C32.3455 25.2286 32.3404 25.2154 32.3383 25.2015C32.3294 25.1619 32.3253 25.1214 32.3261 25.0809L32.3176 24.8843C32.3211 24.8125 32.3023 24.7414 32.2639 24.6805C32.2381 24.6503 32.2071 24.625 32.1723 24.6057C32.2181 24.5763 32.2575 24.5381 32.2883 24.4935C32.3302 24.4227 32.351 24.3415 32.3481 24.2595C32.3541 24.1815 32.3357 24.1035 32.2953 24.0361C32.2549 23.9688 32.1944 23.9154 32.1222 23.8832C32.0306 23.8458 31.9319 23.8281 31.8328 23.8313H31.1234V25.3631H31.3884V24.7347H31.806C31.8612 24.7317 31.9165 24.7399 31.9684 24.7589C31.997 24.775 32.0204 24.799 32.0357 24.8278C32.0511 24.8566 32.0578 24.8892 32.0551 24.9217L32.0673 25.1629C32.0679 25.2033 32.0715 25.2437 32.0783 25.2835C32.082 25.3036 32.0886 25.3231 32.0978 25.3414L32.1076 25.3595H32.4031V25.2703L32.3835 25.2691ZM30.5654 24.6298C30.5644 24.327 30.6847 24.036 30.9 23.8205C31.005 23.714 31.1305 23.6295 31.2691 23.5717C31.4077 23.514 31.5566 23.4842 31.7071 23.4842C31.8575 23.4842 32.0064 23.514 32.145 23.5717C32.2837 23.6295 32.4092 23.714 32.5142 23.8205C32.6734 23.9805 32.7816 24.1831 32.8255 24.4033C32.8694 24.6234 32.847 24.8515 32.7611 25.0592C32.6753 25.2669 32.5297 25.4453 32.3424 25.5722C32.155 25.6991 31.9342 25.769 31.7071 25.7732C31.5567 25.7734 31.4078 25.7438 31.2692 25.6862C31.1306 25.6286 31.005 25.5442 30.9 25.4379C30.685 25.2226 30.5647 24.9322 30.5654 24.6298ZM31.7071 26.0048C31.8878 26.0051 32.0668 25.9694 32.2333 25.9C32.3999 25.8306 32.5506 25.7288 32.6766 25.6008C32.934 25.3411 33.0782 24.9921 33.0782 24.6286C33.0782 24.2651 32.934 23.9161 32.6766 23.6564C32.5504 23.5287 32.3996 23.4273 32.2331 23.3581C32.0666 23.2889 31.8877 23.2534 31.7071 23.2536C31.4341 23.2587 31.1686 23.3427 30.9434 23.4952C30.7182 23.6478 30.5432 23.8622 30.4401 24.1119C30.3369 24.3616 30.3101 24.6357 30.363 24.9003C30.4159 25.165 30.5461 25.4085 30.7376 25.6008C30.8635 25.7288 31.0143 25.8306 31.1808 25.9C31.3473 25.9694 31.5263 26.0051 31.7071 26.0048Z" fill="white"/>
<path d="M118.512 20.7954H118.277V19.2093H117.74V18.9874H119.051V19.2093H118.514L118.512 20.7954ZM120.137 20.3757L120.639 18.9874H121.005V20.7966H120.761V19.2841L120.205 20.7954H120.056L119.503 19.2841V20.7954H119.271V18.9862H119.637L120.137 20.3757ZM115.388 5.17926H92.9211V11.1956C92.9211 11.1956 92.8527 13.5187 95.7612 13.5187H109.494C110.033 13.5143 110.567 13.6215 111.061 13.8335C111.828 14.1712 112.69 14.8587 112.69 16.2458C112.69 17.4905 112.079 18.1974 111.475 18.593C110.974 18.9123 110.39 19.08 109.795 19.0754H92.9211V20.7641H111.736C111.736 20.7641 116.01 20.5928 116.01 16.2542C116.01 14.0482 114.706 12.9554 113.532 12.4198C112.774 12.0758 111.949 11.8992 111.115 11.9024H97.5036C97.2768 11.9054 97.0528 11.8527 96.8516 11.7492C96.561 11.5936 96.2411 11.2848 96.2411 10.6769V6.84497H115.388V5.17926ZM64.643 19.0694V20.758H74.1793C75.3192 20.77 76.4249 20.3746 77.293 19.6447C77.7407 19.2694 78.0978 18.7999 78.3382 18.2707C78.5787 17.7415 78.6963 17.1658 78.6825 16.5859V9.40806C78.6776 9.01554 78.763 8.62703 78.9322 8.27184C79.1014 7.91665 79.35 7.60404 79.6594 7.35759C80.0983 7.01812 80.6416 6.83723 81.1991 6.84497H89.5131V5.17926H79.6117C79.6117 5.17926 75.3381 5.2468 75.3381 9.71201V16.4146C75.3456 16.9636 75.1958 17.5034 74.9058 17.9718C74.6961 18.3182 74.3965 18.6029 74.038 18.7965C73.6795 18.9901 73.2751 19.0856 72.8667 19.073L64.643 19.0694ZM42.6252 5.17926V6.84497H59.6221C60.0949 6.84098 60.5627 6.94025 60.9921 7.13565C61.6661 7.44805 62.4232 8.09093 62.4232 9.39479C62.4232 10.6613 61.6661 11.2945 60.9921 11.6081C60.5556 11.806 60.0804 11.9065 59.6001 11.9024H46.9941C46.2479 11.8955 45.5104 12.0607 44.8402 12.3849C43.7913 12.9047 42.6252 14.129 42.6252 16.1481V20.7315H45.8964V16.1686C45.8942 15.8718 45.9485 15.5772 46.0564 15.3002C46.3262 14.6163 47.0088 13.5187 48.6047 13.5187H61.3157C61.7432 13.5209 62.1689 13.4645 62.5807 13.351C63.748 13.0229 65.6943 12.0749 65.6943 9.39479C65.6943 5.22992 61.4976 5.17926 61.4976 5.17926H42.6252Z" fill="white"/>
</g>
<defs>
<clipPath id="clip0">
<rect width="121" height="26" fill="white"/>
</clipPath>
</defs>
</svg>
