<svg width="118" height="26" viewBox="0 0 118 26" fill="none" xmlns="http://www.w3.org/2000/svg">
<g clip-path="url(#clip0)">
<path d="M19.2351 2.02833C23.6705 3.6418 25.1636 5.62407 25.1636 10.0957C25.1636 14.4751 22.6165 16.1347 19.3229 14.4751V6.31556C19.3229 5.34747 19.1472 4.47159 18.3128 4.24109C17.6541 4.01059 17.2589 4.65598 17.2589 5.62407V26L12.033 24.2482V-0.0461426C14.2287 0.368751 17.4784 1.42903 19.2351 2.02833ZM18.225 25.5851L29.6429 21.2517C29.6429 21.2517 31.18 20.6524 31.7948 19.8226C32.4096 18.9929 32.1461 17.7943 29.6869 16.9645C27.4911 16.0886 24.7244 15.812 22.4409 16.0425C20.1573 16.3191 18.5324 16.9184 18.5324 16.9184L18.225 17.0106V20.3297L23.8461 18.2553C24.8123 17.8865 26.2176 17.8404 26.9641 18.0709C27.7546 18.3475 27.5789 18.8546 26.6567 19.2234L18.225 22.3581V25.5851ZM2.41555 22.0815C5.13829 23.0035 7.90494 23.1879 10.4959 22.773C10.6716 22.7269 10.8473 22.7269 11.0229 22.6808V19.8226L8.43192 20.7907C7.46579 21.1595 6.06051 21.2517 5.27003 20.9751C4.47956 20.6985 4.65522 20.1914 5.57744 19.8226L10.979 17.8404V14.6595L3.51343 17.4255C3.51343 17.4255 1.71291 18.0709 0.615027 18.9007C-0.526767 19.7765 -0.13153 21.3439 2.41555 22.0815ZM90.4654 6.13116H80.4967C77.5983 6.13116 76.193 8.02123 76.193 10.4645V17.8865C76.193 19.4078 75.4904 20.468 74.0851 20.468H64.6872C64.6433 20.468 64.5994 20.5141 64.5994 20.5602V22.0354C64.5994 22.0815 64.6433 22.1276 64.6872 22.1276H75.139C78.0374 22.1276 79.4427 20.2375 79.4427 17.8404V10.4184C79.4427 8.89712 80.1454 7.83684 81.5506 7.83684H90.4654C90.5093 7.83684 90.5532 7.79074 90.5532 7.74464V6.26946C90.5972 6.17726 90.5093 6.13116 90.4654 6.13116ZM60.9544 6.13116H42.9053C42.8614 6.13116 42.8175 6.17726 42.8175 6.22336V7.69854C42.8175 7.74464 42.8614 7.79074 42.9053 7.79074H59.9005C61.3497 7.79074 62.0084 8.89712 62.0084 10.3723C62.0084 11.8936 61.3058 12.9539 59.9005 12.9539H46.4624C44.3984 12.9539 42.8175 14.7978 42.8175 17.2411V21.9893C42.8175 22.0354 42.8614 22.0815 42.9053 22.0815H45.9794C46.0233 22.0815 46.0672 22.0354 46.0672 21.9893V17.2872C46.0672 15.7659 46.9016 14.7056 48.0873 14.7056H60.9544C63.8528 14.7056 65.2581 12.8156 65.2581 10.4184C65.2581 8.02123 63.8528 6.13116 60.9544 6.13116ZM114.18 18.7163C114.224 18.7163 114.311 18.7624 114.311 18.8085V20.2836C114.311 20.3297 114.267 20.3758 114.18 20.3758H111.106C111.062 20.3758 111.018 20.4219 111.018 20.5141V21.9893C111.018 22.0354 110.974 22.1276 110.93 22.1276H107.856C107.812 22.1276 107.768 22.0815 107.768 21.9893V20.468C107.768 20.4219 107.724 20.3758 107.68 20.3758H90.5972C89.8067 20.3758 89.4115 20.1453 89.2358 19.8226C89.0601 19.4539 89.3236 18.9007 90.0263 18.4397L108.427 6.54606C109.964 5.53187 111.062 6.08506 111.062 7.74464V18.5319C111.062 18.578 111.106 18.6241 111.193 18.6241H111.062L114.18 18.7163ZM107.724 9.40421C107.724 9.21981 107.548 9.17371 107.461 9.26591L93.1882 18.4858C93.1003 18.5319 93.0564 18.578 93.1003 18.6702C93.1003 18.7163 93.1882 18.7624 93.276 18.7624H107.592C107.636 18.7624 107.68 18.7163 107.68 18.6241V9.40421H107.724Z" fill="white"/>
</g>
<defs>
<clipPath id="clip0">
<rect width="118" height="26" fill="white" transform="matrix(1 0 0 -1 0 26)"/>
</clipPath>
</defs>
</svg>
