<svg width="114" height="26" viewBox="0 0 114 26" fill="none" xmlns="http://www.w3.org/2000/svg">
  <path fill-rule="evenodd" clip-rule="evenodd" d="M2.47576 22.0727C-0.118916 21.3213 -0.559499 19.7702 0.626503 18.8764C1.7232 18.0478 3.58793 17.429 3.58793 17.429L11.2886 14.6428V17.8174L5.74679 19.8353C4.76679 20.1972 4.61675 20.6989 5.41338 20.9631C6.21 21.2272 7.64963 21.1524 8.62844 20.7954L11.2862 19.8136V22.6541C11.1183 22.6855 10.929 22.7156 10.7563 22.7446C7.98314 23.2027 5.1416 22.9722 2.47576 22.0727ZM18.7226 22.4032L27.3639 19.2793C28.3451 18.9174 28.4952 18.4181 27.6985 18.1539C26.9019 17.8898 25.4623 17.9646 24.4835 18.3228L18.7249 20.3805V17.1009L19.0583 16.9864C20.3594 16.56 21.7006 16.2718 23.0605 16.1264C25.4004 15.8646 28.2653 16.1625 30.5135 17.0262C33.0486 17.8391 33.3344 19.0368 32.6902 19.8618C32.046 20.6869 30.4671 21.2743 30.4671 21.2743L18.7249 25.5549L18.7226 22.4032ZM19.7335 2.07098C24.2834 3.6619 25.8255 5.64242 25.8255 10.1052C25.8255 14.4534 23.1891 16.1022 19.8407 14.4558V6.34682C19.8407 5.39636 19.6692 4.52069 18.7928 4.27222C18.1212 4.0527 17.7044 4.68834 17.7044 5.6388V25.9324L12.3317 24.1956V0C14.6168 0.431805 17.945 1.44739 19.7335 2.06615V2.07098Z" fill="white"/>
  <path d="M112.527 5.1792H90.6172V11.1955C90.6172 11.1955 90.5505 13.5186 93.3869 13.5186H106.779C107.305 13.5142 107.825 13.6215 108.307 13.8334C109.055 14.1711 109.896 14.8586 109.896 16.2457C109.896 17.4905 109.3 18.1973 108.711 18.5929C108.223 18.9122 107.653 19.0799 107.072 19.0754H90.6172V20.764H108.966C108.966 20.764 113.133 20.5927 113.133 16.2542C113.133 14.0481 111.862 12.9553 110.717 12.4198C109.978 12.0757 109.173 11.8992 108.36 11.9023H95.0861C94.8649 11.9053 94.6464 11.8527 94.4502 11.7492C94.1668 11.5936 93.8549 11.2848 93.8549 10.6769V6.84491H112.527V5.1792ZM63.0402 19.0693V20.758H72.3401C73.4517 20.7699 74.53 20.3745 75.3766 19.6447C75.8132 19.2693 76.1614 18.7999 76.3959 18.2706C76.6304 17.7414 76.7451 17.1658 76.7317 16.5859V9.408C76.7269 9.01548 76.8101 8.62697 76.9751 8.27178C77.1401 7.91659 77.3826 7.60398 77.6843 7.35753C78.1123 7.01806 78.6422 6.83717 79.1858 6.84491H87.2937V5.1792H77.6378C77.6378 5.1792 73.4701 5.24674 73.4701 9.71195V16.4146C73.4775 16.9635 73.3314 17.5034 73.0486 17.9717C72.8441 18.3181 72.5519 18.6028 72.2022 18.7964C71.8526 18.99 71.4583 19.0855 71.06 19.073L63.0402 19.0693ZM41.5684 5.1792V6.84491H58.1438C58.6049 6.84092 59.0611 6.94018 59.4798 7.13559C60.1371 7.44799 60.8754 8.09087 60.8754 9.39473C60.8754 10.6612 60.1371 11.2944 59.4798 11.608C59.0542 11.8059 58.5907 11.9064 58.1224 11.9023H45.8289C45.1012 11.8955 44.382 12.0607 43.7284 12.3848C42.7055 12.9047 41.5684 14.1289 41.5684 16.148V20.7314H44.7584V16.1685C44.7563 15.8717 44.8092 15.5771 44.9144 15.3001C45.1776 14.6162 45.8432 13.5186 47.3995 13.5186H59.7954C60.2123 13.5209 60.6275 13.4645 61.029 13.3509C62.1674 13.0229 64.0655 12.0748 64.0655 9.39473C64.0655 5.22986 59.9728 5.1792 59.9728 5.1792H41.5684Z" fill="white"/>
  </svg>
  