<svg width="47" height="64" viewBox="0 0 47 64" fill="none" xmlns="http://www.w3.org/2000/svg">
<g clip-path="url(#clip0)">
<path d="M0.337402 0.345436H46.6567V63.6605H0.337402V0.345436Z" fill="#1B1615"/>
<path d="M46.3181 63.3127H0.684363V0.686138H46.3181V63.3127ZM47 1.14441e-05H46.3181H0.684363H0V0.686138V63.3127V64H0.684363H46.3181H47V63.3127V0.686138V1.14441e-05Z" fill="white"/>
<path d="M43.862 3.02875H3.15991V12.5811H43.862V3.02875Z" fill="white"/>
<path d="M3.23706 14.9405H43.8668V52.1902H3.23706V14.9405Z" fill="white"/>
<path d="M3.28223 60.3229V54.7222H11.4654V56.0312H6.56875V56.8303H10.7134V58.1382H6.56875V59.015H11.6585V60.3229H3.28223Z" fill="white"/>
<path d="M18.6043 56.3477C18.5561 56.1607 18.3726 56.0404 18.1349 55.97C17.9007 55.8971 17.611 55.868 17.2839 55.868C16.561 55.868 16.2399 55.9846 16.2399 56.1934C16.2399 57.0216 22.0092 56.5031 22.0092 58.5396C22.0092 59.8378 20.0696 60.4705 17.3129 60.4705C14.6637 60.4705 12.9401 59.6058 12.8701 58.5942H16.0142C16.0878 58.7982 16.2834 58.9416 16.561 59.0363C16.8265 59.1298 17.1717 59.1771 17.4976 59.1771C18.3195 59.1771 18.8675 59.0314 18.8675 58.7655C18.8675 57.9179 13.0934 58.5007 13.0934 56.3659C13.0934 55.1746 14.9316 54.5783 17.4444 54.5783C20.2229 54.5783 21.4974 55.3713 21.734 56.3477H18.6043Z" fill="white"/>
<path d="M26.9304 57.1461H28.2206C29.2405 57.1461 29.7884 56.9991 29.7884 56.6154C29.7884 56.2195 29.2332 56.0288 28.462 56.0288H26.9304V57.1461ZM26.9304 58.3677V60.3192H23.645V54.7185H28.3775C31.7196 54.7185 32.8227 55.231 32.8227 56.3191C32.8227 56.9664 32.3098 57.5043 31.1378 57.6913C32.1951 57.905 32.836 58.0386 32.836 59.1692C32.836 59.8978 32.7962 60.1504 33.186 60.1504V60.3192H29.8536C29.7703 60.1953 29.6883 59.8371 29.6883 59.3417C29.6883 58.6057 29.4674 58.3677 27.9346 58.3677H26.9304Z" fill="white"/>
<path d="M38.1334 56.0285V56.9672H39.4997C40.1515 56.9672 40.6307 56.796 40.6307 56.4766C40.6307 56.0394 39.9837 56.0285 39.2921 56.0285H38.1334ZM38.1334 57.98V59.0122H39.5637C40.376 59.0122 40.9891 58.9199 40.9891 58.5009C40.9891 58.0116 40.2275 57.98 39.1738 57.98H38.1334ZM34.8457 60.3201V54.7182H39.6373C41.9004 54.7182 43.6951 55.0193 43.6951 56.1317C43.6951 56.7085 43.0253 57.1263 42.3868 57.3473C43.467 57.5039 44.056 58.0286 44.056 58.6321C44.056 59.8805 42.3446 60.3201 39.7339 60.3201H34.8457Z" fill="white"/>
<path d="M4.09692 11.1628V4.71451H5.96529L6.8367 9.10084H6.85239L7.77212 4.71451H9.57651V11.1628H8.44919V6.18875H8.43593L7.36776 11.1628H6.25495L5.24472 6.18875H5.22542V11.1628H4.09692Z" fill="#1B1615"/>
<path d="M10.0981 11.156L11.637 4.70768H13.1698L14.6737 11.156H13.4523L13.1469 9.72909H11.561L11.2447 11.156H10.0981ZM12.3346 5.94877H12.3165L11.7903 8.73697H12.9007L12.3346 5.94877Z" fill="#1B1615"/>
<path d="M18.0638 4.70719V5.77825H16.7724V11.1555H15.6101V5.77825H14.3223V4.70719H18.0638Z" fill="#1B1615"/>
<path d="M22.3518 4.70727V9.28182C22.3518 9.52713 22.3192 9.76513 22.2564 10.0019C22.1913 10.2363 22.0838 10.4476 21.9438 10.6358C21.7966 10.8229 21.6022 10.9746 21.3584 11.09C21.1219 11.2066 20.8214 11.2649 20.4713 11.2649C19.8268 11.2649 19.3537 11.0864 19.0423 10.7281C18.7358 10.3723 18.5776 9.89023 18.5776 9.28182V4.70727H19.7375V9.19318C19.7375 9.59028 19.8039 9.87444 19.9342 10.0457C20.0682 10.2157 20.2396 10.2994 20.4532 10.2994C20.7103 10.2994 20.8974 10.2048 21.0133 10.0153C21.1328 9.82465 21.1931 9.5502 21.1931 9.19318V4.70727H22.3518Z" fill="#1B1615"/>
<path d="M24.4358 11.156H23.2759V4.70768H25.417C25.8177 4.70768 26.1388 4.84853 26.3693 5.13513C26.6034 5.42172 26.7193 5.84191 26.7193 6.39445C26.7193 6.80613 26.6397 7.15344 26.4852 7.44124C26.3271 7.72784 26.0639 7.90633 25.6898 7.97798V7.99499C25.7501 8.00592 25.8406 8.02414 25.9529 8.04843C26.0639 8.0715 26.1762 8.12614 26.286 8.20872C26.3958 8.29372 26.4912 8.41637 26.5757 8.58031C26.6565 8.74304 26.6988 8.97134 26.6988 9.26522C26.6988 9.36479 26.6988 9.50811 26.7036 9.69148C26.7036 9.87728 26.7109 10.0679 26.7193 10.2659C26.729 10.4602 26.7422 10.6423 26.7591 10.8099C26.776 10.9751 26.8002 11.0916 26.8255 11.156H25.6898C25.6101 10.9617 25.5739 10.7565 25.5679 10.5403C25.563 10.3278 25.563 10.1153 25.563 9.90761C25.563 9.71574 25.563 9.53483 25.5606 9.36239C25.5582 9.18995 25.5329 9.03814 25.4846 8.91063C25.4363 8.78312 25.3542 8.67991 25.2384 8.6034C25.1225 8.52568 24.9547 8.48559 24.7363 8.48559H24.4358V11.156ZM24.4358 7.49465H24.9523C25.0609 7.49465 25.1599 7.46552 25.2335 7.40359C25.312 7.3453 25.3723 7.27121 25.417 7.17649C25.4653 7.0842 25.4954 6.9822 25.5148 6.86926C25.5329 6.75633 25.5425 6.64945 25.5425 6.54866C25.5425 6.23778 25.4894 6.01918 25.3868 5.89289C25.2794 5.76295 25.137 5.69858 24.9523 5.69858H24.4358V7.49465Z" fill="#1B1615"/>
<path d="M27.5706 11.156V4.70768H30.5988V5.69858H28.734V7.28945H30.4539V8.28035H28.734V10.1663H30.6616V11.156H27.5706Z" fill="#1B1615"/>
<path d="M33.0125 5.67626C33.2092 5.54511 33.3963 5.40184 33.5749 5.24032C33.7523 5.07881 33.9128 4.88935 34.0516 4.67198H35.0812V11.1567H33.9213V6.16808C33.7825 6.31138 33.6364 6.44131 33.4831 6.56032C33.331 6.6769 33.173 6.78743 33.0125 6.89308V5.67626Z" fill="#1B1615"/>
<path d="M39.1686 5.90794L37.8651 11.1565H36.6557L38.1271 5.67602H36.29V4.67173H39.1686V5.90794Z" fill="#1B1615"/>
<path d="M40.962 5.95836H41.8152V7.71918H43.1139V8.71135H41.8152V10.4709H40.962V8.71135H39.656V7.71918H40.962V5.95836Z" fill="#1B1615"/>
<path d="M5.8833 23.4661L17.563 20.3088L24.2182 36.0422L24.2749 36.024L22.2641 19.0446L33.9401 15.8921L41.2277 43.3637L34.1079 45.2812L28.9011 25.6387L28.842 25.6629L31.0519 46.1033L23.3515 48.1884L15.1394 29.3631L15.0791 29.3801L20.2823 49.0202L13.1697 50.9365L5.8833 23.4661Z" fill="#1B1615"/>
<path d="M40.3921 48.629C40.7771 48.6193 40.87 48.4626 40.87 48.2841C40.87 48.0971 40.7771 48.0011 40.45 48.0011H39.9612V48.629H40.3921ZM39.9612 49.0139V50.0644H39.5532V47.6162H40.4017C40.8797 47.6162 41.3697 47.74 41.3697 48.2926C41.3697 48.5731 41.1971 48.799 40.8434 48.8682V48.8755C41.1983 48.9411 41.2454 49.0977 41.2876 49.3612C41.3226 49.5883 41.3516 49.8458 41.4421 50.0644H40.9207C40.8881 49.9271 40.8483 49.7656 40.8326 49.6272C40.806 49.4171 40.806 49.2167 40.6865 49.1038C40.5839 49.0139 40.444 49.0248 40.304 49.0139H39.9612ZM42.2628 48.8719C42.2628 47.9283 41.4518 47.1644 40.4355 47.1644C39.4193 47.1644 38.5961 47.9283 38.5961 48.8719C38.5961 49.8179 39.4193 50.5914 40.4355 50.5914C41.4518 50.5914 42.2628 49.8179 42.2628 48.8719ZM38.2002 48.8719C38.2002 47.7255 39.1948 46.7965 40.4355 46.7965C41.6618 46.7965 42.6563 47.7255 42.6563 48.8719C42.6563 50.0231 41.6618 50.9557 40.4355 50.9557C39.1948 50.9557 38.2002 50.0231 38.2002 48.8719Z" fill="#1B1615"/>
</g>
<defs>
<clipPath id="clip0">
<rect width="47" height="64" fill="white"/>
</clipPath>
</defs>
</svg>
