<svg width="52" height="64" viewBox="0 0 52 64" fill="none" xmlns="http://www.w3.org/2000/svg">
<g clip-path="url(#clip0)">
<path d="M52.052 0H0V52.4587H52.052V0Z" fill="#E2011A"/>
<path d="M0 64H52.052V0H0V64ZM51.0112 51.4084H1.04198V1.0484H51.0111V51.4084H51.0112Z" fill="black"/>
<path d="M3.30603 60.0663H4.18918L5.00092 56.0877H5.01902L5.86598 60.0663H6.69581L7.83915 55.1958H7.04746L6.29954 59.178H6.28022L5.4785 55.1958H4.58655L3.76539 59.178H3.74791L2.9726 55.1958H2.17896L3.30603 60.0663Z" fill="white"/>
<path d="M9.15015 60.0663H10.0334L10.8444 56.0877H10.8639L11.7113 60.0663H12.5382L13.6845 55.1958H12.891L12.1432 59.178H12.1245L11.3215 55.1958H10.4296L9.60963 59.178H9.59141L8.81611 55.1958H8.02319L9.15015 60.0663Z" fill="white"/>
<path d="M14.9932 60.0663H15.877L16.6882 56.0877H16.7063L17.5549 60.0663H18.3831L19.5282 55.1958H18.7358L17.9868 59.178H17.9687L17.1658 55.1958H16.2744L15.4533 59.178H15.4352L14.6597 55.1958H13.865L14.9932 60.0663Z" fill="white"/>
<path d="M20.7837 59.1047H19.9556V60.0664H20.7837V59.1047Z" fill="white"/>
<path fill-rule="evenodd" clip-rule="evenodd" d="M22.659 57.6328C22.659 56.5223 22.795 55.7238 23.6336 55.7238C24.3369 55.7238 24.5174 56.4704 24.5174 57.5406C24.5174 58.7952 24.3369 59.5395 23.6336 59.5395C22.8226 59.5395 22.659 58.5766 22.659 57.6328ZM21.9475 61.6657H22.7035V59.5135H22.7228C22.8945 59.9305 23.3 60.1938 23.732 60.1938C24.985 60.1938 25.3103 58.6487 25.3103 57.5406C25.3103 56.097 24.8772 55.0693 23.732 55.0693C23.2087 55.0693 22.7862 55.4343 22.6865 55.797H22.6689V55.1956H21.9475V61.6657Z" fill="white"/>
<path fill-rule="evenodd" clip-rule="evenodd" d="M26.7808 57.1225V56.9405C26.7808 56.6523 26.871 55.6696 27.6646 55.6696C28.3316 55.6696 28.5039 56.3134 28.5039 56.8591V57.1225H26.7808ZM29.2962 57.7226V57.4143C29.2962 56.3689 29.1602 55.0695 27.6821 55.0695C26.1953 55.0695 25.9597 56.4776 25.9597 57.6966C25.9597 59.3681 26.4555 60.1939 27.6376 60.1939C28.954 60.1939 29.2588 58.9855 29.2588 58.468H28.5039C28.5039 58.8307 28.4031 59.595 27.6821 59.595C26.7545 59.595 26.7545 58.468 26.7545 57.7228H29.2962V57.7226Z" fill="white"/>
<path fill-rule="evenodd" clip-rule="evenodd" d="M31.6219 55.7238C32.433 55.7238 32.5948 56.6865 32.5948 57.6328C32.5948 58.6298 32.433 59.4129 31.6124 59.4129C30.8576 59.4129 30.7381 58.4218 30.7381 57.6328C30.738 56.4704 30.9186 55.7238 31.6219 55.7238ZM33.3073 55.1958H32.5877V55.816H32.5677C32.4692 55.4332 32.046 55.0693 31.5221 55.0693C30.2972 55.0693 29.9456 56.3144 29.9456 57.6328C29.9456 58.2778 30.0347 60.0663 31.4411 60.0663C31.9193 60.0663 32.3695 59.8205 32.5336 59.4129H32.5523V60.0496C32.5523 60.3852 32.5875 61.1388 31.6123 61.1388C31.2162 61.1388 30.8727 60.9664 30.8387 60.5222H30.0816C30.2059 61.7389 31.3697 61.7389 31.6651 61.7389C32.6393 61.7389 33.3073 61.2121 33.3073 59.7579V55.1958Z" fill="white"/>
<path fill-rule="evenodd" clip-rule="evenodd" d="M34.3469 60.0662H35.103V55.1968H34.3469V60.0662ZM34.3469 54.4528H35.103V53.5785H34.3469V54.4528Z" fill="white"/>
<path d="M37.1401 59.1047H36.3103V60.0664H37.1401V59.1047Z" fill="white"/>
<path fill-rule="evenodd" clip-rule="evenodd" d="M38.3486 60.0662H39.1071V55.1968H38.3486V60.0662ZM38.3486 54.4528H39.1071V53.5785H38.3486V54.4528Z" fill="white"/>
<path d="M40.1431 60.0663H40.898V56.7055C40.898 55.9967 41.4501 55.7238 41.8556 55.7238C42.5402 55.7238 42.567 56.3333 42.567 56.7055V60.0663H43.3243V56.6134C43.3243 56.0428 43.3243 55.0695 42.0525 55.0695C41.5861 55.0695 41.0809 55.3245 40.8828 55.7711H40.8629V55.1958H40.1431V60.0663Z" fill="white"/>
<path d="M44.5434 60.0663H45.3029V55.797H46.1304V55.1956H45.3029V54.6251C45.3029 54.2885 45.4635 54.162 45.7894 54.162H46.1398V53.5074H45.5901C44.8587 53.5074 44.5434 53.8891 44.5434 54.625V55.1955H43.8413V55.7969H44.5434V60.0663Z" fill="white"/>
<path fill-rule="evenodd" clip-rule="evenodd" d="M46.4175 57.6328C46.4175 59.0031 46.7622 60.1938 48.1581 60.1938C49.5471 60.1938 49.8976 59.0031 49.8976 57.6328C49.8976 56.259 49.5553 55.0693 48.1581 55.0693C46.7716 55.0693 46.4175 56.259 46.4175 57.6328ZM48.1394 59.5962C47.3646 59.5962 47.2135 58.6842 47.2135 57.6328C47.2135 56.5768 47.3752 55.6694 48.1394 55.6694C48.9518 55.6694 49.1064 56.5766 49.1064 57.6328C49.1064 58.684 48.9423 59.5962 48.1394 59.5962Z" fill="white"/>
<path d="M20.6589 28.4559C21.0361 28.9592 20.9185 29.1531 20.5368 29.4455L19.7183 28.3497C20.1642 28.0127 20.3398 28.025 20.6589 28.4559ZM40.9365 41.7636C41.3168 42.2668 41.1946 42.4654 40.8174 42.7516L39.9974 41.6574C40.4448 41.3204 40.6204 41.3373 40.9365 41.7636ZM22.6823 17.3459C23.061 17.8492 22.9419 18.0477 22.5616 18.3355L21.7447 17.2428C22.1875 16.9043 22.3631 16.9196 22.6823 17.3459ZM13.5551 5.13713C13.9308 5.64038 13.8147 5.83737 13.436 6.1267L12.6175 5.03248C13.0588 4.6939 13.236 4.70929 13.5551 5.13713ZM7.48209 38.4624C7.85774 38.9672 7.74168 39.1627 7.36145 39.4536L6.54143 38.3578C6.9858 38.0208 7.16141 38.0315 7.48209 38.4624ZM24.7071 6.23751C25.0828 6.73922 24.9667 6.93929 24.585 7.22708L23.7695 6.13132C24.2124 5.79582 24.388 5.80967 24.7071 6.23751ZM29.7876 40.6617C30.1632 41.1649 30.0426 41.365 29.6639 41.6543L28.8454 40.557C29.2882 40.2231 29.4654 40.2354 29.7876 40.6617ZM31.8124 29.5563C32.1866 30.0565 32.072 30.255 31.6888 30.5443L30.8718 29.4501C31.3177 29.1131 31.4902 29.1269 31.8124 29.5563ZM44.9893 19.5467C45.3649 20.05 45.2474 20.2485 44.8671 20.5363L44.0502 19.4405C44.4945 19.105 44.6686 19.1189 44.9893 19.5467ZM35.8606 7.33789C36.2363 7.84114 36.1202 8.03813 35.74 8.32746L34.923 7.23324C35.3659 6.8962 35.5415 6.91005 35.8606 7.33789ZM33.8358 18.4463C34.2114 18.9496 34.0954 19.1466 33.7151 19.4359L32.8982 18.3417C33.338 18.0046 33.5166 18.0185 33.8358 18.4463ZM47.0141 8.43827C47.3898 8.94152 47.2737 9.13851 46.895 9.4263L46.072 8.33208C46.5194 7.99504 46.695 8.01043 47.0141 8.43827ZM9.50694 27.354C9.8826 27.8573 9.76654 28.0527 9.38783 28.3436L8.56934 27.2447C9.01218 26.9123 9.18779 26.9262 9.50694 27.354ZM18.6341 39.5644C19.0097 40.0645 18.8937 40.2615 18.5134 40.5509L17.6965 39.4551C18.1393 39.1196 18.3149 39.135 18.6341 39.5644ZM42.9614 30.6536C43.3416 31.1569 43.2225 31.3569 42.8423 31.6463L42.0253 30.5505C42.4666 30.2119 42.6422 30.2288 42.9614 30.6536ZM1.46401 3.9321L2.28251 5.02632C2.66274 4.73699 2.7788 4.54 2.40314 4.03829C2.08246 3.60891 1.90838 3.59506 1.46401 3.9321ZM11.5303 16.2456C11.909 16.7488 11.7899 16.9473 11.4096 17.2367L10.5911 16.1409C11.034 15.8054 11.2096 15.8162 11.5303 16.2456ZM50.6042 1.12036H49.2238L49.7247 1.78982L50.6042 1.12036ZM25.2462 1.23886L25.1576 1.12036H23.3053L24.0612 2.13763L25.2462 1.23886ZM29.7983 3.81052C31.1314 5.59113 31.7697 5.97434 32.944 5.08019C33.2952 4.81394 33.4861 4.51076 33.5762 4.10754L33.9213 4.21989L34.5275 3.76127L32.6508 1.24964L31.1711 2.37156L31.8018 3.21647L32.098 2.99024L32.4309 3.43808C32.634 3.70894 32.5882 3.91209 32.4049 4.0506C32.2217 4.18911 32.0155 4.17834 31.8124 3.90901L30.2732 1.84523C30.0701 1.5759 30.1159 1.37122 30.2961 1.23271C30.4793 1.0942 30.6885 1.10189 30.8916 1.3743L31.0886 1.639L31.7697 1.12036H28.9156C28.6194 1.80213 28.905 2.6178 29.7983 3.81052ZM36.3997 2.33924L35.4865 1.12036H33.6327L35.2147 3.23801L36.3997 2.33924ZM40.9533 4.91244C42.2818 6.69151 42.9217 7.07472 44.096 6.1821C44.4487 5.91432 44.6427 5.6096 44.7297 5.20946L45.0748 5.32027L45.681 4.86011L43.8043 2.35155L42.3277 3.47194L42.9553 4.31685L43.25 4.09062L43.5829 4.53692C43.7875 4.80932 43.7417 5.01093 43.5569 5.15098C43.3737 5.28949 43.1675 5.28026 42.966 5.00785L41.4221 2.94561C41.2206 2.67474 41.2679 2.4716 41.4527 2.33309C41.6359 2.19304 41.8421 2.20381 42.0436 2.47313L42.2391 2.73784L43.4241 1.84061C43.1492 1.47741 42.9614 1.26503 42.7613 1.13883C42.7491 1.1296 42.7354 1.1296 42.7232 1.12036H41.2114C41.0572 1.19885 40.8999 1.29119 40.7548 1.40354C39.6156 2.26691 39.6752 3.20723 40.9533 4.91244ZM47.5501 3.43962L45.817 1.12036H43.9646L46.3682 4.33839L47.5501 3.43962ZM6.22686 6.11285L8.85795 4.11216L8.13719 3.14721L6.68497 4.24759L6.02681 3.36575L7.16752 2.4993L6.44217 1.52973L5.303 2.39772L4.72883 1.63131L5.39767 1.12036H3.47665L2.85057 1.59745L6.22686 6.11285ZM17.3804 7.21477L20.0115 5.21408L19.2861 4.24605L17.837 5.34797L17.1773 4.46613L18.318 3.60122L17.5926 2.63165L16.455 3.49656L15.8808 2.73015L17.2597 1.68209L16.8429 1.12036H16.0763L14.001 2.69629L17.3804 7.21477ZM21.7905 3.98289C22.1432 3.71356 22.3372 3.41192 22.4227 3.0087L22.7693 3.11951L23.374 2.65935L22.2257 1.12036H20.2207L20.0222 1.27426L20.6498 2.11455L20.946 1.8914L21.282 2.33924C21.482 2.60703 21.4347 2.81171 21.2514 2.95176C21.0682 3.09027 20.862 3.0795 20.6589 2.8071L19.4006 1.12036H17.7392C17.8828 1.57129 18.1821 2.08993 18.6432 2.71168C19.9779 4.49075 20.6162 4.87396 21.7905 3.98289ZM10.6385 2.88097C10.9912 2.61318 11.1836 2.30846 11.2707 1.90986L11.6158 2.01759L12.2205 1.55897L11.8952 1.12036H10.0429L10.1284 1.23579C10.3285 1.50819 10.2827 1.71133 10.0994 1.84984C9.91619 1.98835 9.71004 1.97912 9.50694 1.70826L9.06868 1.12036H7.15377C7.25761 1.27888 7.36603 1.43739 7.4943 1.6113C8.82588 3.39037 9.46419 3.77358 10.6385 2.88097ZM46.8065 44.7769L50.1873 49.2939L50.9784 48.686V47.8749L47.9915 43.8766L46.8065 44.7769ZM43.7173 49.7863L42.5766 50.6513L42.0039 49.8833L43.3813 48.8383L42.6865 47.9072L40.1241 49.8525L41.2664 51.3777H43.6195L44.4426 50.7544L43.7173 49.7863ZM48.5442 50.1634L48.8924 50.2727L49.4971 49.8156L47.6234 47.3055L46.1437 48.429L46.7698 49.2692L47.0676 49.0446L47.4035 49.4924C47.6066 49.7617 47.5562 49.9649 47.373 50.1034C47.1913 50.2419 46.9836 50.2327 46.7851 49.9618L45.2413 47.8995C45.0382 47.6271 45.084 47.424 45.2672 47.287C45.4489 47.1485 45.6566 47.1593 45.8597 47.4286L46.0567 47.6949L47.2386 46.7945C46.9668 46.4313 46.779 46.2174 46.582 46.0912C45.9529 45.6803 45.2046 45.8742 44.5739 46.3575C43.4302 47.2224 43.4913 48.1581 44.7679 49.8648C45.3375 50.6266 45.7803 51.1176 46.1926 51.3777H47.541C47.6631 51.31 47.7853 51.2345 47.9151 51.1345C48.2633 50.8683 48.4572 50.5651 48.5442 50.1634ZM38.3161 51.2222L38.1084 51.3777H40.7044C39.9546 50.462 39.2323 50.5281 38.3161 51.2222ZM26.4006 50.7051L25.5088 51.3777H29.1233C29.0485 51.2453 28.9981 51.1237 28.8882 50.976C28.1017 49.9249 27.3596 49.9741 26.4006 50.7051ZM31.3849 51.0991L32.524 50.2327L31.8018 49.2646L30.6626 50.1295L30.0854 49.3631L31.4673 48.3166L30.771 47.384L28.2071 49.3323L29.7372 51.3777H31.5941L31.3849 51.0991ZM17.7362 49.8741C16.9513 48.8229 16.2061 48.8768 15.2486 49.6032L13.9186 50.6128L14.4882 51.3777H16.2763L15.6701 50.5651C16.1129 50.228 16.2901 50.2419 16.6092 50.6697C16.8581 51.0037 16.8749 51.1976 16.7604 51.3777H18.1393C18.3012 50.9406 18.1882 50.482 17.7362 49.8741ZM22.3387 49.7787L20.8895 50.879L20.2344 49.9987L21.3705 49.1338L20.6498 48.1673L19.5091 49.0322L18.9349 48.2627L20.3138 47.2147L19.6175 46.2836L17.0536 48.232L19.4083 51.3777H22.2348L23.0656 50.7482L22.3387 49.7787ZM32.8371 51.3777H33.8678L33.4922 50.879L32.8371 51.3777ZM50.1629 42.2284L50.9784 43.3164V41.6081L50.1629 42.2284ZM48.0678 34.2472L50.9784 38.1393V35.6599L49.2528 33.3468L48.0678 34.2472ZM49.4284 26.7923L50.0575 27.6356L50.3538 27.4094L50.6882 27.8557C50.8913 28.1281 50.8424 28.3297 50.6577 28.4682C50.476 28.6067 50.2713 28.5975 50.0682 28.3267L48.5275 26.2629C48.3244 25.9935 48.3717 25.7904 48.5534 25.6519C48.7367 25.5118 48.9443 25.5211 49.1459 25.7919L49.3414 26.0582L50.5263 25.1579C50.2545 24.7947 50.0637 24.5838 49.8667 24.4561C49.2406 24.0452 48.4908 24.2376 47.8586 24.7208C46.7179 25.5857 46.7805 26.5245 48.0556 28.2297C49.2971 29.8918 49.9445 30.3212 50.9784 29.644V25.7673L50.9051 25.6704L49.4284 26.7923ZM49.8804 13.6093C48.7428 14.4773 48.8038 15.4161 50.0805 17.1197C50.4164 17.5737 50.7096 17.9323 50.9784 18.2078V15.7269L50.5523 15.156C50.3492 14.8851 50.3965 14.682 50.5798 14.5434C50.705 14.448 50.8424 14.4296 50.9784 14.5111V13.1445C50.6058 13.1861 50.2286 13.3476 49.8804 13.6093ZM49.3398 6.03128L50.7188 4.98323L50.0209 4.0506L47.4631 5.99896L50.8394 10.5144L50.9784 10.4082V8.22435L50.6363 7.76727L50.9784 7.50718V5.98819L49.9109 6.7977L49.3398 6.03128ZM50.9784 24.3222V22.4646L50.0942 23.1387L50.9784 24.3222ZM49.2726 19.756L48.613 18.8757L49.7506 18.0093L49.0283 17.0412L47.8891 17.9061L47.3165 17.1397L48.6939 16.0932L47.9976 15.1621L45.4382 17.1074L48.8145 21.6243L50.9784 19.9792V19.0019L50.7188 18.6541L49.2726 19.756ZM4.5181 49.4632L5.33506 50.5589C5.7153 50.2696 5.83441 50.0726 5.45723 49.5724C5.13808 49.143 4.96094 49.1277 4.5181 49.4632ZM1.11279 17.2798V19.5698L2.20463 18.7387L1.11279 17.2798ZM2.05803 22.7986L1.36323 21.8675L1.11279 22.0568V23.5158L2.05803 22.7986ZM1.50524 14.348C1.37392 14.171 1.24412 14.0387 1.11279 13.9217V16.8027C2.17103 15.9901 2.27945 15.3837 1.50524 14.348ZM2.06109 36.4695L1.11279 37.1897V38.7087L2.78643 37.4375L2.06109 36.4695ZM4.80976 26.329L4.08594 25.361L2.63678 26.4614L1.97863 25.5842L3.11933 24.7162L2.39398 23.7482L1.25328 24.6131L1.11279 24.4253V26.9062L2.17714 28.3297L4.80976 26.329ZM4.56543 36.2078C4.91666 35.9385 5.10754 35.6353 5.1961 35.2352L5.54427 35.346L6.14898 34.8828L4.27224 32.3742L2.79254 33.4992L3.42321 34.341L3.71945 34.1163L4.05388 34.5642C4.25545 34.8335 4.20811 35.0382 4.02639 35.1782C3.84162 35.3167 3.63547 35.3044 3.43542 35.032L1.89158 32.9698C1.69001 32.6989 1.73583 32.4942 1.91907 32.3557C2.10232 32.2172 2.30847 32.2311 2.51156 32.5004L2.70855 32.762L3.89048 31.8663C3.61714 31.4985 3.42779 31.2923 3.23385 31.163C2.60471 30.7521 1.85646 30.946 1.22274 31.4246C1.17998 31.4585 1.1525 31.4908 1.11279 31.5231V34.4965C1.209 34.6396 1.30367 34.7812 1.41973 34.9335C2.75131 36.7172 3.38961 37.1004 4.56543 36.2078ZM6.83462 15.2221L6.1108 14.2541L4.66011 15.356L4.00348 14.4742L5.14266 13.6062L4.41884 12.6397L3.27814 13.5046L2.70397 12.7367L4.08289 11.6902L3.38656 10.7591L1.11279 12.4874V13.0906L4.20353 17.2213L6.83462 15.2221ZM3.09031 8.49675L1.11279 5.85122V2.92406C2.03513 2.24536 2.76353 2.21612 3.52857 3.23955C4.30889 4.28453 4.20047 4.89089 3.1178 5.71425L2.91165 5.86969L4.22949 7.6303L3.09031 8.49675ZM1.86563 42.9748C1.59381 42.607 1.40446 42.3977 1.20747 42.2699C1.17693 42.2484 1.14333 42.2484 1.11279 42.2299V43.5457L1.86563 42.9748ZM11.1867 48.6783L9.74058 49.7787L9.08243 48.8984L10.2231 48.0319L9.49778 47.0623L8.35708 47.9303L7.78139 47.1654L9.16183 46.1159L8.46703 45.1848L5.90465 47.13L9.07937 51.3777H9.63369L11.912 49.6448L11.1867 48.6783ZM6.17036 51.2469L5.99933 51.3777H4.16077L2.76658 49.5139L4.09663 48.5028C5.05409 47.7749 5.79776 47.7256 6.58266 48.7737C7.36603 49.8171 7.25456 50.422 6.17036 51.2469ZM2.54058 47.3147C2.89332 47.0469 3.0842 46.7422 3.17125 46.3405L3.51941 46.4514L4.12259 45.9927L2.24739 43.4842L1.11279 44.3429V45.0663L1.39988 45.4479L1.6946 45.2248L2.02749 45.6695C2.23059 45.9404 2.18325 46.1451 2.00153 46.2836C1.81829 46.4206 1.61214 46.4129 1.40904 46.142L1.11279 45.745V47.7041C1.55564 47.8595 1.98932 47.7333 2.54058 47.3147ZM50.1507 39.7475L50.76 39.2873L48.8833 36.7773L47.4035 37.8992L48.0342 38.7441L48.3305 38.5163L48.6634 38.9626C48.8665 39.2366 48.8206 39.4366 48.6374 39.5767C48.4542 39.7152 48.248 39.7044 48.0449 39.4351L46.5011 37.3713C46.298 37.102 46.3438 36.8973 46.5286 36.7588C46.7118 36.6218 46.9164 36.6295 47.121 36.8988L47.3165 37.1666L48.5015 36.2648C48.2282 35.9016 48.0388 35.6907 47.8418 35.5615C47.2127 35.1505 46.4644 35.346 45.8337 35.8277C44.693 36.6957 44.7557 37.6329 46.0307 39.3397C47.3593 41.1157 47.9976 41.4989 49.1734 40.6063C49.5277 40.3385 49.7185 40.0368 49.8041 39.6352L50.1507 39.7475ZM47.3929 41.8405L46.6706 40.8725L45.2199 41.9729L44.5632 41.091L45.7039 40.2261L44.9786 39.2596L43.8364 40.1215L43.2607 39.3581L44.6427 38.3101L43.9478 37.3775L41.3855 39.3243L44.7618 43.8397L47.3929 41.8405ZM42.7613 45.3556L41.4481 43.5965L41.6512 43.4411C42.7354 42.6193 42.8469 42.0114 42.0635 40.9695C41.2801 39.9183 40.5334 39.9707 39.5759 40.6971L38.2489 41.7051L41.6252 46.222L42.7613 45.3556ZM39.4492 47.8718L36.0729 43.3549L34.8925 44.2552L38.2688 48.7722L39.4492 47.8718ZM37.5786 49.2954L35.7049 46.7838L34.2252 47.9072L34.8558 48.7475L35.1521 48.5244L35.485 48.9707C35.6881 49.24 35.6407 49.4447 35.459 49.5847C35.2758 49.7233 35.0696 49.7109 34.8665 49.4431L33.3227 47.3794C33.1227 47.107 33.17 46.9054 33.3532 46.7668C33.5334 46.6299 33.7426 46.6376 33.9457 46.9069L34.1412 47.1731L35.3201 46.2728C35.0482 45.9096 34.8604 45.6988 34.6634 45.5695C34.0389 45.1586 33.2891 45.3525 32.6538 45.8358C31.5147 46.7022 31.5773 47.6395 32.8493 49.3447C34.1839 51.1237 34.8238 51.5069 35.9965 50.6143C36.3493 50.3465 36.5386 50.0418 36.6287 49.6417L36.9739 49.7525L37.5786 49.2954ZM33.6082 42.7393L36.2439 40.7417L35.5171 39.7706L34.0694 40.874L33.4097 39.9907L34.5489 39.1258L33.8251 38.1593L32.6844 39.0242L32.1133 38.2547L33.4922 37.2066L32.7943 36.2755L30.232 38.2239L33.6082 42.7393ZM31.6139 44.2568L30.293 42.4946L30.4992 42.3407C31.5834 41.5173 31.6933 40.911 30.9115 39.8691C30.1266 38.818 29.3814 38.8687 28.4239 39.5951L27.0924 40.6047L30.4732 45.1217L31.6139 44.2568ZM28.3003 46.7745L24.9209 42.2576L23.739 43.1533L27.1153 47.6702L28.3003 46.7745ZM26.4281 48.1935L24.5498 45.6819L23.0747 46.8053L23.7023 47.6471L23.9986 47.424L24.3315 47.8718C24.5346 48.1396 24.4872 48.3474 24.3055 48.4844C24.1223 48.6229 23.9161 48.6106 23.713 48.3412L22.1707 46.2774C21.9691 46.0081 22.0165 45.8065 22.1982 45.668C22.383 45.5264 22.5891 45.5372 22.7907 45.8096L22.9877 46.0712L24.1727 45.1755C23.8963 44.8092 23.7069 44.5999 23.5145 44.4691C22.8854 44.0613 22.1356 44.2552 21.5003 44.7338C20.3642 45.6034 20.4238 46.5406 21.6973 48.2443C23.0274 50.0233 23.6703 50.4081 24.843 49.517C25.1973 49.2462 25.3867 48.9414 25.4722 48.5428L25.8219 48.6521L26.4281 48.1935ZM22.4593 41.6374L25.0904 39.6382L24.3666 38.6702L22.9144 39.7706L22.2593 38.8934L23.3969 38.0238L22.6762 37.0543L21.5355 37.9223L20.9598 37.1574L22.3387 36.1078L21.6408 35.1782L19.08 37.122L22.4593 41.6374ZM20.4604 43.1548L19.1426 41.3958L19.3457 41.2388C20.4299 40.417 20.5398 39.8091 19.7626 38.7672C18.9731 37.7176 18.2325 37.7684 17.275 38.4948L15.9434 39.5074L19.3197 44.0244L20.4604 43.1548ZM17.1483 45.6726L13.772 41.1541L12.587 42.0545L15.9633 46.5699L17.1483 45.6726ZM15.2776 47.0916L13.3994 44.5846L11.9212 45.7065L12.5503 46.5468L12.8466 46.3221L13.1825 46.7699C13.3826 47.0408 13.3368 47.2439 13.1535 47.384C12.9703 47.5225 12.7641 47.5102 12.561 47.2409L11.0202 45.1771C10.8187 44.9077 10.8645 44.7046 11.0477 44.5661C11.2294 44.4276 11.4371 44.4368 11.6387 44.7061L11.8357 44.9708L13.0191 44.0736C12.7458 43.7089 12.558 43.498 12.361 43.3703C11.7318 42.9578 10.9851 43.1533 10.3483 43.635C9.21222 44.4999 9.27483 45.4387 10.5484 47.1424C11.8784 48.923 12.5167 49.3062 13.691 48.4136C14.0438 48.1458 14.2362 47.8441 14.3232 47.4425L14.6699 47.5517L15.2776 47.0916ZM11.3073 40.5401L13.9384 38.5394L13.2131 37.5729L11.7624 38.6702L11.1042 37.7915L12.2449 36.9235L11.5196 35.957L10.3819 36.8234L9.80624 36.0555L11.1867 35.0074L10.4919 34.0779L7.92798 36.0216L11.3073 40.5401ZM9.30843 42.0545L7.99059 40.2954L8.19369 40.1384C9.27789 39.3151 9.38783 38.7118 8.60599 37.6668C7.82109 36.6172 7.07742 36.6664 6.11996 37.3959L4.78991 38.404L8.16773 42.9224L9.30843 42.0545ZM5.99627 44.5738L2.61846 40.0568L1.435 40.9525L4.81129 45.471L5.99627 44.5738ZM6.83615 34.361L8.02113 33.4653L4.64179 28.9484L3.45986 29.8472L6.83615 34.361ZM6.58877 25.0963C6.94151 24.8316 7.13392 24.5269 7.21943 24.1252L7.56913 24.236L8.17384 23.7759L6.2971 21.2658L4.8174 22.3892L5.44807 23.2326L5.74278 23.0079L6.07873 23.4557C6.2803 23.7251 6.23297 23.9267 6.05125 24.0652C5.868 24.2052 5.66185 24.1945 5.45876 23.9251L3.91797 21.8614C3.71487 21.5905 3.76068 21.3873 3.94393 21.2473C4.12565 21.1103 4.33332 21.118 4.53489 21.3935L4.73341 21.6551L5.91534 20.7564C5.64353 20.3932 5.45112 20.1823 5.25719 20.0546C4.6311 19.6437 3.87979 19.836 3.24607 20.3177C2.10842 21.1827 2.16951 22.123 3.44306 23.8266C4.77464 25.6073 5.41294 25.9905 6.58877 25.0963ZM5.48624 18.7372L8.86253 23.2541L10.0429 22.3569L6.66664 17.8384L5.48624 18.7372ZM8.61668 13.9894C8.96484 13.7216 9.15878 13.4169 9.24429 13.0168L9.59399 13.126L10.1987 12.6674L8.32043 10.1573L6.84378 11.2808L7.4714 12.1226L7.76764 11.8995L8.10359 12.3458C8.30669 12.6151 8.25935 12.8198 8.07611 12.9583C7.89133 13.0968 7.68518 13.0845 7.48209 12.8152L5.9413 10.7514C5.7382 10.482 5.78707 10.2804 5.96879 10.1404C6.15203 10.0019 6.35818 10.0111 6.55975 10.282L6.75674 10.5467L7.9402 9.64791C7.66839 9.28317 7.4775 9.07387 7.28357 8.94613C6.65443 8.53368 5.90618 8.7276 5.27246 9.2093C4.13328 10.0758 4.19436 11.0145 5.46944 12.7182C6.7995 14.4973 7.43933 14.8805 8.61668 13.9894ZM7.50805 7.62876L10.8843 12.1457L12.0678 11.2469L8.69303 6.72999L7.50805 7.62876ZM10.8645 5.08019L14.2408 9.59713L15.3815 8.72914L14.0636 6.97007L14.2667 6.81617C15.3509 5.99281 15.4609 5.38491 14.6836 4.34147C13.8941 3.29034 13.1535 3.34113 12.1945 4.06907L10.8645 5.08019ZM15.5708 13.737L14.4301 14.605L13.8575 13.837L15.2349 12.789L14.5401 11.8579L11.9792 13.8032L15.3555 18.3201L17.9881 16.3225L17.2643 15.3545L15.8136 16.4564L15.1555 15.5761L16.2962 14.7081L15.5708 13.737ZM16.6214 13.8186C17.9515 15.6007 18.5913 15.9824 19.7687 15.0898C20.1168 14.822 20.3092 14.5157 20.3978 14.1156L20.746 14.2264L21.3522 13.7663L19.4724 11.2577L17.9942 12.3796L18.6234 13.223L18.9196 12.9983L19.2571 13.4461C19.4602 13.7155 19.4083 13.9186 19.2296 14.0571C19.0433 14.1956 18.8372 14.1864 18.6341 13.914L17.0933 11.8517C16.8902 11.5824 16.9375 11.3793 17.1208 11.2392C17.304 11.1007 17.5102 11.1115 17.7133 11.3824L17.9103 11.6455L19.0922 10.7483C18.8204 10.3836 18.631 10.1727 18.4356 10.045C17.8064 9.63406 17.0566 9.82951 16.426 10.3081C15.2853 11.1746 15.3479 12.1149 16.6214 13.8186ZM18.66 8.7276L22.0363 13.2445L23.2213 12.3488L19.845 7.83036L18.66 8.7276ZM22.0165 6.17903L25.3928 10.6975L26.5335 9.83105L25.2156 8.06891L25.4187 7.91501C26.5044 7.09165 26.6144 6.48682 25.8326 5.44185C25.0461 4.39072 24.3055 4.44304 23.3465 5.16945L22.0165 6.17903ZM25.153 3.79821L28.5339 8.31361L31.1635 6.316L30.4381 5.34489L28.992 6.44681L28.3308 5.56651L29.4715 4.70006L28.7461 3.73203L27.6085 4.59694L27.0328 3.82899L28.4133 2.78247L27.7184 1.84984L25.153 3.79821ZM30.9955 8.93074L29.8136 9.82951L33.1898 14.3449L34.3733 13.4477L30.9955 8.93074ZM33.17 7.28094L36.5463 11.7979L37.687 10.9299L36.3691 9.17083L36.5722 9.01539C37.6564 8.19203 37.7694 7.5872 36.9891 6.54223C36.2027 5.4911 35.459 5.54342 34.5016 6.27137L33.17 7.28094ZM36.3065 4.89705L39.6813 9.41399L42.317 7.41638L41.5901 6.44681L40.1425 7.54719L39.4858 6.66843L40.622 5.80197L39.9027 4.83241L38.762 5.69732L38.1863 4.9309L39.5652 3.88131L38.872 2.95176L36.3065 4.89705ZM42.1505 10.0296L40.9655 10.9284L44.3464 15.4468L45.5268 14.5465L42.1505 10.0296ZM44.3235 8.38132L47.6998 12.8983L48.8405 12.0318L47.5227 10.2697L47.7257 10.1142C48.81 9.29087 48.9199 8.68604 48.1381 7.64107C47.3532 6.58994 46.608 6.64226 45.6551 7.37021L44.3235 8.38132ZM43.6272 18.4786L42.2971 19.4913L45.6734 24.0067L46.8156 23.1403L45.4978 21.3781L45.7039 21.2242C46.7851 20.4024 46.895 19.7945 46.1147 18.7526C45.3283 17.7015 44.5846 17.7538 43.6272 18.4786ZM43.6486 35.1136L44.7877 34.2487L43.4714 32.4881L43.6745 32.3357C44.7618 31.5093 44.8717 30.906 44.0899 29.861C43.305 28.8099 42.5598 28.8607 41.6008 29.5886L40.2723 30.5967L43.6486 35.1136ZM40.2921 37.6622L41.4756 36.7665L38.0993 32.2495L36.9158 33.1452L40.2921 37.6622ZM34.8757 38.2362C36.2073 40.0184 36.8486 40.4 38.0214 39.509C38.3726 39.2412 38.565 38.9349 38.6551 38.5348L38.9987 38.6441L39.6065 38.1885L37.7267 35.6769L36.25 36.7973L36.8792 37.6422L37.1754 37.4175L37.5098 37.8653C37.7129 38.1331 37.6641 38.3393 37.4839 38.4763C37.3006 38.6148 37.0914 38.6056 36.8914 38.3347L35.3491 36.2709C35.146 36.0016 35.1933 35.8 35.375 35.6599C35.5583 35.5214 35.7644 35.5307 35.966 35.8015L36.1676 36.0632L37.348 35.1675C37.0762 34.8027 36.8853 34.5934 36.6883 34.4642C36.0637 34.0532 35.3124 34.2472 34.6802 34.7258C33.5395 35.5953 33.6021 36.5341 34.8757 38.2362ZM35.6346 31.6293L38.2688 29.6317L37.5419 28.6652L36.0943 29.7625L35.4346 28.8853L36.5768 28.0173L35.8499 27.0493L34.7092 27.9157L34.1381 27.1478L35.5155 26.0997L34.8192 25.1686L32.2583 27.1139L35.6346 31.6293ZM32.4981 34.0163L33.6388 33.1483L32.3225 31.3877L32.524 31.2307C33.6082 30.4104 33.7182 29.8041 32.9363 28.7591C32.1515 27.708 31.4063 27.7618 30.4488 28.4867L29.1218 29.4994L32.4981 34.0163ZM29.1417 36.5618L30.3236 35.6646L26.9458 31.1476L25.7654 32.0464L29.1417 36.5618ZM23.7222 37.1374C25.0538 38.9165 25.6936 39.2981 26.8694 38.4086C27.2222 38.1408 27.4161 37.8361 27.4986 37.4344L27.8482 37.5452L28.453 37.0835L26.5777 34.5765L25.1011 35.6984L25.7287 36.5418L26.025 36.314L26.3579 36.7649C26.5609 37.0343 26.5136 37.239 26.3304 37.3775C26.1471 37.5175 25.9425 37.5021 25.7394 37.2328L24.1956 35.169C23.9925 34.8997 24.0429 34.6965 24.2261 34.558C24.4078 34.4195 24.6155 34.4318 24.814 34.7012L25.0125 34.9628L26.1975 34.0656C25.9226 33.7008 25.7318 33.493 25.5363 33.3638C24.9102 32.9513 24.1635 33.1452 23.5267 33.6269C22.3891 34.4919 22.4486 35.4306 23.7222 37.1374ZM24.4811 30.532L27.1153 28.5313L26.3914 27.5618L24.9408 28.6652L24.2811 27.7849L25.4233 26.9169L24.698 25.9474L23.5557 26.8138L22.9846 26.0443L24.362 24.9994L23.6657 24.0683L21.1048 26.0135L24.4811 30.532ZM21.3446 32.9159L22.4853 32.0464L21.1674 30.2889L21.3705 30.1304C22.4563 29.307 22.5662 28.7037 21.7844 27.6572C20.9995 26.6076 20.2573 26.6584 19.2999 27.3863L17.9683 28.399L21.3446 32.9159ZM17.9881 35.4645L19.1731 34.5657L15.7938 30.0488L14.6118 30.946L17.9881 35.4645ZM12.5717 36.037C13.9048 37.8176 14.5431 38.1993 15.7174 37.3067C16.0686 37.0389 16.2595 36.7357 16.3496 36.3325L16.6947 36.4433L17.301 35.9847L15.4242 33.4761L13.9445 34.5996L14.5752 35.4399L14.8714 35.2167L15.2043 35.663C15.4074 35.9323 15.3616 36.137 15.1784 36.2755C14.9951 36.4125 14.789 36.4048 14.5859 36.134L13.0436 34.0717C12.8435 33.8008 12.8909 33.5962 13.0695 33.4576C13.2558 33.3191 13.462 33.3284 13.6651 33.5992L13.8621 33.8655L15.0425 32.9667C14.7691 32.6004 14.5798 32.3911 14.3843 32.2619C13.7582 31.8525 13.01 32.0464 12.3747 32.5281C11.234 33.393 11.2966 34.3318 12.5717 36.037ZM16.4092 21.155C15.7816 20.744 15.0348 20.938 14.3996 21.4197C13.2589 22.2861 13.323 23.2234 14.5966 24.927C15.9266 26.7092 16.568 27.0893 17.7438 26.1998C18.0966 25.932 18.2844 25.6257 18.3729 25.2256L18.7211 25.3364L19.3258 24.8762L17.4506 22.3677L15.9694 23.4881L16.6016 24.333L16.8978 24.1067L17.2292 24.5546C17.4323 24.8254 17.3865 25.0286 17.2032 25.1686C17.0215 25.3072 16.8154 25.2948 16.6123 25.0255L15.0684 22.9633C14.8653 22.6939 14.9127 22.4893 15.099 22.3492C15.2776 22.2092 15.4853 22.2215 15.6884 22.4923L15.8869 22.754L17.0673 21.8583C16.7955 21.4905 16.6046 21.2827 16.4092 21.155ZM17.8202 18.9388L16.6382 19.836L20.0145 24.3561L21.1949 23.4573L17.8202 18.9388ZM21.3217 16.2794L19.9916 17.2875L23.371 21.8059L24.5086 20.9395L23.1938 19.1789L23.3969 19.025C24.4811 18.2001 24.5911 17.5953 23.8107 16.5503C23.0243 15.4992 22.2807 15.5515 21.3217 16.2794ZM31.168 25.4549L32.3484 24.5561L28.9722 20.0407L27.7902 20.938L31.168 25.4549ZM26.251 23.4496C26.4312 23.3095 26.6404 23.3219 26.8389 23.5912L27.0389 23.8559L28.2208 22.9587C27.9475 22.5924 27.7582 22.38 27.5612 22.2553C26.9366 21.8429 26.1884 22.0368 25.5531 22.5185C24.4124 23.3834 24.475 24.3237 25.7486 26.0259C27.0786 27.808 27.7184 28.1912 28.8927 27.2971C29.2455 27.0308 29.4379 26.7276 29.5234 26.326L29.8746 26.4383L30.4793 25.9766L28.6026 23.4681L27.1229 24.59L27.7551 25.4318L28.0513 25.2071L28.3827 25.655C28.5858 25.9243 28.54 26.1274 28.3568 26.2659C28.175 26.406 27.9674 26.3952 27.7643 26.1259L26.2219 24.0621C26.0173 23.7928 26.0647 23.5881 26.251 23.4496ZM32.4737 17.3798L31.1451 18.3894L34.5229 22.9063L35.6621 22.0383L34.3428 20.2793L34.5474 20.1238C35.6316 19.3005 35.7446 18.6956 34.9612 17.6507C34.1778 16.5995 33.4342 16.6519 32.4737 17.3798ZM42.3185 26.5537L43.502 25.658L40.1241 21.1411L38.9407 22.0368L42.3185 26.5537ZM37.3999 24.5515C37.5831 24.4115 37.7908 24.4222 37.9924 24.6916L38.1894 24.9547L39.3728 24.059C39.101 23.6927 38.9101 23.4834 38.7147 23.3542C38.0855 22.9448 37.3373 23.1387 36.7066 23.6173C35.5644 24.4853 35.627 25.4241 36.9021 27.1293C38.2321 28.9084 38.872 29.2916 40.0478 28.4005C40.3975 28.1312 40.5899 27.8265 40.6769 27.4248L41.0266 27.5356L41.6267 27.077L39.7561 24.5669L38.2749 25.6888L38.9086 26.5322L39.2003 26.3075L39.5347 26.7553C39.7393 27.0247 39.692 27.2294 39.5072 27.3679C39.324 27.5064 39.1193 27.4971 38.9178 27.2247L37.3739 25.1609C37.1708 24.8916 37.2182 24.69 37.3999 24.5515ZM39.4247 13.44C39.608 13.3015 39.8157 13.3123 40.0172 13.5831L40.2142 13.8478L41.3992 12.9475C41.1259 12.5843 40.9365 12.375 40.7395 12.2457C40.1119 11.8333 39.3621 12.0287 38.7315 12.5074C37.5892 13.3753 37.6503 14.3141 38.9269 16.0193C40.257 17.7999 40.8968 18.1816 42.0711 17.2905C42.4223 17.0228 42.6147 16.7211 42.7018 16.3179L43.0499 16.4287L43.6547 15.9686L41.7779 13.4569L40.3028 14.5788L40.9289 15.4253L41.2251 15.2006L41.5626 15.6484C41.7657 15.9178 41.7138 16.1224 41.5321 16.261C41.3488 16.3979 41.1427 16.3887 40.9426 16.1178L39.3973 14.0525C39.1957 13.7816 39.243 13.58 39.4247 13.44ZM36.1599 16.0393L37.5404 14.9913L36.8441 14.0587L34.2832 16.0055L37.6595 20.524L40.2921 18.5248L39.5698 17.5553L38.1145 18.6556L37.4594 17.7769L38.6017 16.9104L37.8748 15.9408L36.7356 16.8058L36.1599 16.0393ZM28.2743 12.3411C28.456 12.2026 28.6637 12.2119 28.8668 12.4812L29.0607 12.7459L30.2457 11.8487C29.9739 11.4855 29.783 11.2731 29.586 11.1469C28.9599 10.736 28.2117 10.9284 27.5764 11.4101C26.4373 12.275 26.4999 13.2153 27.775 14.922C29.105 16.6996 29.7448 17.0843 30.9176 16.1917C31.2703 15.9224 31.4628 15.6192 31.5513 15.2191L31.8964 15.3283L32.5042 14.8697L30.6259 12.3581L29.1478 13.48L29.7769 14.3234L30.0731 14.0987L30.406 14.545C30.6091 14.8174 30.5633 15.0221 30.3801 15.1606C30.1999 15.2991 29.9907 15.2868 29.7876 15.019L28.2468 12.9521C28.0452 12.6828 28.091 12.4781 28.2743 12.3411ZM25.0064 14.939L26.3869 13.8894L25.6936 12.9583L23.1312 14.9066L26.506 19.422L29.1386 17.4244L28.4133 16.4564L26.9626 17.5568L26.3075 16.6749L27.4466 15.81L26.7243 14.8405L25.5821 15.7069L25.0064 14.939ZM12.0388 18.0785L12.2449 17.9215C13.3291 17.0997 13.4391 16.4933 12.6572 15.4499C11.8723 14.3972 11.1271 14.448 10.1697 15.179L8.8381 16.1886L12.2174 20.7071L13.3566 19.8407L12.0388 18.0785ZM13.3291 29.4316L15.9633 27.4294L15.2379 26.4614L13.7888 27.5618L13.1291 26.6845L14.2698 25.8166L13.5444 24.8485L12.4037 25.715L11.8326 24.9455L13.2131 23.8974L12.5137 22.9679L9.95284 24.9132L13.3291 29.4316ZM10.017 29.1885L10.2201 29.033C11.3027 28.2082 11.4127 27.6018 10.6308 26.5568C9.84595 25.5088 9.10075 25.558 8.14788 26.2859L6.8163 27.2971L10.1926 31.8155L11.3333 30.9491L10.017 29.1885ZM47.0035 28.1497L45.8643 29.0161L45.2871 28.2466L46.669 27.2001L45.9727 26.2675L43.4088 28.2158L46.7866 32.7343L49.4177 30.7336L48.6939 29.7625L47.2432 30.8675L46.5881 29.9841L47.7257 29.1192L47.0035 28.1497Z" fill="#F66041"/>
<path d="M18.4299 45.1688H10.2931V16.6781H4.97437V11.8431C8.62497 11.8956 11.0245 10.3705 12.3277 6.79639H18.4299V45.1688Z" fill="white"/>
<path d="M36.4219 13.7347C34.7001 13.7347 34.2846 14.5754 34.2846 18.2035C34.2846 21.8302 34.7001 22.6708 36.4219 22.6708C38.1437 22.6708 38.5608 21.8302 38.5608 18.2035C38.5608 14.5754 38.1437 13.7347 36.4219 13.7347ZM36.4219 28.8733C34.5453 28.8733 34.0746 30.1867 34.0746 33.7624C34.0746 37.389 34.5453 38.6514 36.4219 38.6514C38.2986 38.6514 38.7693 37.389 38.7693 33.7624C38.7693 30.1867 38.2986 28.8733 36.4219 28.8733ZM25.9377 34.2352C25.9377 30.4509 26.7734 27.77 29.8505 25.4043C27.2946 22.8284 26.3563 20.5677 26.3563 17.0987C26.3563 11.0538 30.1633 6.79517 36.4219 6.79517C42.6805 6.79517 46.4875 11.0538 46.4875 17.0987C46.4875 20.5677 45.5492 22.8284 42.9948 25.4043C46.072 27.77 46.9061 30.4509 46.9061 34.2352C46.9061 41.1207 44.7672 45.7996 36.4219 45.7996C28.0766 45.7996 25.9377 41.1207 25.9377 34.2352Z" fill="white"/>
<path d="M50.1377 5.19807H49.6532V2.81688H49.6379L48.8069 5.19807H48.4128L47.6217 2.81688H47.6079V5.19807H47.1234V2.17407H47.8931L48.6398 4.42237H48.6551L49.3834 2.17407H50.1377V5.19807ZM46.7769 2.17407V2.56501H45.9505V5.19807H45.466V2.56501H44.6411V2.17407H46.7769Z" fill="black"/>
</g>
<defs>
<clipPath id="clip0">
<rect width="52" height="64" fill="white"/>
</clipPath>
</defs>
</svg>
