<svg width="40" height="40" viewBox="0 0 40 40" fill="none" xmlns="http://www.w3.org/2000/svg">
<g opacity="0.5" clip-path="url(#clip0)">
<path d="M19.4784 15.3323C19.4784 12.9981 20.2451 12.3012 22.1608 12.3012C24.0774 12.3012 24.8441 12.9981 24.8441 15.3323C24.8441 17.5971 24.0774 18.3643 22.1608 18.3643C20.2451 18.3643 19.4784 17.5971 19.4784 15.3323ZM22.1608 21.6039C19.9313 21.6039 19.1297 22.6141 19.1297 24.8091C19.1297 27.0045 19.9313 27.8751 22.1608 27.8751C24.3906 27.8751 25.1923 27.0045 25.1923 24.8091C25.1923 22.6141 24.3906 21.6039 22.1608 21.6039ZM36.9339 18.2242V16.5864C36.9339 15.3677 36.7594 14.7401 35.7142 14.7401H34.6687C33.624 14.7401 33.4494 15.3677 33.4494 16.5864V18.2242H31.8121C30.5929 18.2242 29.9654 18.3983 29.9654 19.4438V20.5588C29.9654 21.6039 30.5929 21.7785 31.8121 21.7785H33.4494V23.4157C33.4494 24.635 33.624 25.2621 34.6687 25.2621H35.7142C36.7594 25.2621 36.9339 24.635 36.9339 23.4157V21.7785H39.2681C39.3635 21.7692 39.4597 21.7805 39.5504 21.8117C39.641 21.8429 39.7238 21.8933 39.7932 21.9594C39.8627 22.0254 39.9171 22.1057 39.9527 22.1946C39.9884 22.2836 40.0045 22.3792 39.9999 22.4749V27.7708C40.0256 28.3557 39.9236 28.9392 39.7009 29.4807C39.4782 30.0222 39.1402 30.5086 38.7104 30.9062L30.9411 38.6759C30.5344 39.1056 30.0421 39.4454 29.4961 39.6735C28.9501 39.9015 28.3624 40.0126 27.7708 39.9998H12.231C11.6394 40.0127 11.0517 39.9016 10.5057 39.6736C9.95965 39.4455 9.46743 39.1057 9.06073 38.6759L1.29147 30.9062C0.857857 30.5116 0.517256 30.0256 0.294257 29.4834C0.0712569 28.9412 -0.0285782 28.3563 0.00195787 27.7708V12.406C-0.0134361 11.785 0.0993263 11.1674 0.333208 10.5919C0.56709 10.0165 0.917072 9.49534 1.36131 9.06112L9.26973 1.04747C9.66516 0.679343 10.1322 0.396576 10.6416 0.216777C11.1511 0.0369773 11.6921 -0.0360029 12.231 0.00238104H27.7708C28.3097 -0.0360107 28.8508 0.036966 29.3602 0.216766C29.8697 0.396565 30.3367 0.679337 30.7321 1.04747L38.641 9.06112C39.0786 9.50025 39.4242 10.0223 39.6575 10.5966C39.8908 11.171 40.0072 11.7861 39.9999 12.406V17.423C39.9999 17.9453 39.7555 18.2242 39.2681 18.2242H36.9339ZM12.9686 10.6988C12.9686 9.68862 12.3411 9.47916 11.1219 9.47916H7.95116C6.73236 9.47916 6.10486 9.68862 6.10486 10.6988V11.8483C6.10486 12.8589 6.73236 13.0675 7.95116 13.0675H8.68298C9.13591 13.0675 9.34449 13.3119 9.34449 14.0083V29.0599C9.34449 30.2791 9.554 30.9062 10.5646 30.9062H11.7485C12.7592 30.9062 12.9686 30.2791 12.9686 29.0599L12.9686 10.6988ZM28.781 25.297C28.781 22.6844 28.607 20.698 26.2719 19.7921C28.2229 18.3643 28.2578 16.9002 28.2578 15.7159V14.5311C28.0488 10.5937 26.7253 9.09604 22.1608 9.09604C17.5972 9.09604 16.2732 10.5937 16.0637 14.5311V15.7159C16.0637 16.9002 16.0986 18.3643 18.0497 19.7921C15.7155 20.698 15.5414 22.6844 15.5414 25.297C15.5414 29.1646 16.8998 31.0807 22.1608 31.185C27.4217 31.0807 28.781 29.1646 28.781 25.297Z" fill="white"/>
</g>
<defs>
<clipPath id="clip0">
<rect width="40" height="39.9974" fill="white" transform="translate(0 0.00244141)"/>
</clipPath>
</defs>
</svg>
