<svg width="64" height="64" viewBox="0 0 64 64" fill="none" xmlns="http://www.w3.org/2000/svg">
<path d="M57.5955 0.934326H6.42072C3.39066 0.934326 0.934326 3.39067 0.934326 6.42073V57.5955C0.934326 60.6255 3.39066 63.0819 6.42072 63.0819H57.5955C60.6255 63.0819 63.0819 60.6255 63.0819 57.5955V6.42073C63.0819 3.39067 60.6255 0.934326 57.5955 0.934326Z" fill="#FF0000" fill-opacity="0.7"/>
<path fill-rule="evenodd" clip-rule="evenodd" d="M6.42078 1.49891C3.70249 1.49891 1.49891 3.70251 1.49891 6.4208V57.5956C1.49891 60.3138 3.7025 62.5174 6.42078 62.5174H57.5956C60.3138 62.5174 62.5174 60.3138 62.5174 57.5956V6.4208C62.5174 3.70251 60.3138 1.49891 57.5956 1.49891H6.42078ZM0.369873 6.4208C0.369873 3.07896 3.07894 0.369873 6.42078 0.369873H57.5956C60.9374 0.369873 63.6465 3.07896 63.6465 6.4208V57.5956C63.6465 60.9374 60.9374 63.6465 57.5956 63.6465H6.42078C3.07894 63.6465 0.369873 60.9374 0.369873 57.5956V6.4208Z" fill="#FF0000"/>
<path d="M57.7148 29.519L34.4972 6.30141C33.1225 4.92669 30.8936 4.92669 29.5189 6.30141L6.3013 29.519C4.92659 30.8937 4.92659 33.1226 6.3013 34.4973L29.5189 57.7149C30.8936 59.0896 33.1225 59.0896 34.4972 57.7149L57.7148 34.4973C59.0895 33.1226 59.0895 30.8937 57.7148 29.519Z" fill="#FF0000" fill-opacity="0.213675" stroke="black" stroke-width="1.25"/>
<path d="M24.8374 12.7944H25.854V15.5212C25.854 15.9539 25.8666 16.2344 25.8918 16.3626C25.9353 16.5686 26.0389 16.7341 26.2026 16.8588C26.3662 16.9836 26.5901 17.046 26.8739 17.046C27.1624 17.046 27.3799 16.987 27.5265 16.8691C27.673 16.7512 27.7611 16.6064 27.7909 16.4347C27.8207 16.263 27.8355 15.9779 27.8355 15.5796V12.7944H28.8521V15.4388C28.8521 16.0432 28.8246 16.4702 28.7697 16.7197C28.7147 16.9693 28.6134 17.1799 28.4657 17.3516C28.3181 17.5234 28.1206 17.6602 27.8733 17.762C27.626 17.8639 27.3033 17.9149 26.9049 17.9149C26.4241 17.9149 26.0594 17.8594 25.811 17.7483C25.5626 17.6373 25.3662 17.493 25.222 17.3156C25.0778 17.1382 24.9828 16.9521 24.937 16.7575C24.8706 16.469 24.8374 16.0432 24.8374 15.48V12.7944ZM29.6694 16.1909L30.6585 16.0947C30.718 16.4267 30.8388 16.6705 31.0208 16.8262C31.2028 16.9819 31.4485 17.0597 31.7575 17.0597C32.0849 17.0597 32.3316 16.9905 32.4976 16.852C32.6635 16.7135 32.7466 16.5515 32.7466 16.366C32.7466 16.247 32.7117 16.1456 32.6418 16.0621C32.572 15.9785 32.4501 15.9058 32.2761 15.844C32.157 15.8028 31.8857 15.7295 31.4622 15.6242C30.9172 15.4891 30.5349 15.3231 30.3151 15.1262C30.006 14.8492 29.8515 14.5115 29.8515 14.1131C29.8515 13.8567 29.9242 13.6169 30.0696 13.3936C30.215 13.1704 30.4244 13.0004 30.698 12.8836C30.9716 12.7669 31.3019 12.7085 31.6888 12.7085C32.3207 12.7085 32.7964 12.847 33.1158 13.124C33.4352 13.4011 33.6028 13.7708 33.6188 14.2333L32.6023 14.278C32.5588 14.0193 32.4655 13.8332 32.3225 13.7199C32.1793 13.6066 31.9647 13.5499 31.6785 13.5499C31.3831 13.5499 31.152 13.6106 30.9848 13.7319C30.8772 13.8098 30.8234 13.9139 30.8234 14.0444C30.8234 14.1635 30.8738 14.2654 30.9745 14.3501C31.1027 14.4577 31.414 14.5699 31.9086 14.6866C32.4031 14.8034 32.7689 14.9242 33.0059 15.049C33.2428 15.1737 33.4283 15.3443 33.5623 15.5607C33.6961 15.777 33.7631 16.0443 33.7631 16.3626C33.7631 16.6511 33.683 16.9212 33.5227 17.1731C33.3624 17.4249 33.1358 17.6121 32.8428 17.7346C32.5496 17.8571 32.1845 17.9183 31.7472 17.9183C31.1107 17.9183 30.6219 17.7712 30.2808 17.477C29.9397 17.1828 29.7359 16.7541 29.6694 16.1909ZM34.6389 17.829V12.7944H35.6554V15.0301L37.7091 12.7944H39.0759L37.1803 14.7553L39.179 17.829H37.8637L36.4797 15.4662L35.6554 16.3076V17.829H34.6389Z" fill="black"/>
<path d="M30.0302 20.9041L29.4266 20.7952C29.4945 20.5522 29.6112 20.3722 29.777 20.2555C29.9426 20.1387 30.1888 20.0803 30.5155 20.0803C30.8123 20.0803 31.0332 20.1154 31.1784 20.1856C31.3236 20.2558 31.4258 20.345 31.485 20.4531C31.5442 20.5612 31.5738 20.7597 31.5738 21.0485L31.5666 21.825C31.5666 22.046 31.5773 22.2089 31.5986 22.3139C31.6199 22.4188 31.6598 22.5313 31.7182 22.6512H31.0601C31.0427 22.607 31.0214 22.5415 30.9961 22.4547C30.9851 22.4153 30.9772 22.3892 30.9725 22.3766C30.8589 22.4871 30.7373 22.5699 30.6079 22.6252C30.4785 22.6804 30.3404 22.708 30.1936 22.708C29.9348 22.708 29.7308 22.6378 29.5816 22.4973C29.4325 22.3569 29.3579 22.1793 29.3579 21.9647C29.3579 21.8226 29.3919 21.696 29.4597 21.5847C29.5276 21.4735 29.6227 21.3882 29.745 21.329C29.8673 21.2699 30.0437 21.2182 30.2741 21.174C30.585 21.1156 30.8005 21.0611 30.9204 21.0106V20.9444C30.9204 20.8165 30.8888 20.7254 30.8257 20.6709C30.7626 20.6165 30.6434 20.5892 30.4682 20.5892C30.3498 20.5892 30.2575 20.6125 30.1912 20.6591C30.1249 20.7056 30.0713 20.7873 30.0302 20.9041ZM30.9204 21.4439C30.8351 21.4723 30.7002 21.5062 30.5155 21.5457C30.3309 21.5851 30.2102 21.6238 30.1533 21.6617C30.0666 21.7232 30.0232 21.8013 30.0232 21.896C30.0232 21.9891 30.0578 22.0696 30.1273 22.1375C30.1967 22.2054 30.2851 22.2393 30.3924 22.2393C30.5124 22.2393 30.6268 22.1998 30.7357 22.1209C30.8162 22.061 30.8691 21.9876 30.8943 21.9008C30.9117 21.844 30.9204 21.7358 30.9204 21.5764V21.4439ZM32.2035 22.6512V19.1807H32.8687V20.4306C33.0739 20.1971 33.317 20.0803 33.5979 20.0803C33.9041 20.0803 34.1574 20.1911 34.3578 20.4129C34.5583 20.6346 34.6585 20.953 34.6585 21.3681C34.6585 21.7974 34.5563 22.128 34.3519 22.36C34.1475 22.592 33.8993 22.708 33.6073 22.708C33.4638 22.708 33.322 22.6721 33.1824 22.6003C33.0427 22.5285 32.9224 22.4224 32.8214 22.2819V22.6512H32.2035ZM32.864 21.3397C32.864 21.6001 32.905 21.7927 32.9871 21.9173C33.1023 22.0941 33.2554 22.1825 33.4464 22.1825C33.5932 22.1825 33.7182 22.1198 33.8216 21.9943C33.9249 21.8688 33.9767 21.6711 33.9767 21.4013C33.9767 21.114 33.9246 20.9069 33.8204 20.7798C33.7162 20.6528 33.5829 20.5892 33.4203 20.5892C33.2609 20.5892 33.1284 20.6512 33.0226 20.7751C32.9168 20.899 32.864 21.0872 32.864 21.3397Z" fill="black"/>
<path d="M27.4312 44.4837H23.9412V31.3307C22.666 32.5231 21.1632 33.4049 19.4326 33.9762V30.8091C20.3434 30.511 21.3329 29.9459 22.4011 29.1137C23.4692 28.2816 24.202 27.3107 24.5995 26.2012H27.4312V44.4837ZM35.6534 34.6593C34.7509 34.2784 34.0947 33.7547 33.6848 33.0882C33.275 32.4216 33.07 31.6909 33.07 30.896C33.07 29.5381 33.5441 28.4161 34.4922 27.5301C35.4402 26.6442 36.7878 26.2012 38.5349 26.2012C40.2655 26.2012 41.6089 26.6442 42.5653 27.5301C43.5216 28.4161 43.9998 29.5381 43.9998 30.896C43.9998 31.7406 43.7803 32.492 43.3415 33.1503C42.9026 33.8085 42.2858 34.3116 41.4909 34.6593C42.5011 35.0651 43.2691 35.6571 43.7949 36.4354C44.3207 37.2137 44.5836 38.1121 44.5836 39.1306C44.5836 40.8115 44.0474 42.1777 42.9751 43.2293C41.9028 44.2808 40.4766 44.8066 38.6964 44.8066C37.0403 44.8066 35.6617 44.3719 34.5605 43.5025C33.2605 42.4758 32.6105 41.0681 32.6105 39.2796C32.6105 38.2943 32.8547 37.3897 33.3433 36.5658C33.8318 35.742 34.6019 35.1065 35.6534 34.6593ZM36.3738 31.1444C36.3738 31.8399 36.5705 32.3823 36.9638 32.7715C37.3571 33.1606 37.8808 33.3552 38.5349 33.3552C39.1973 33.3552 39.7272 33.1586 40.1247 32.7652C40.5221 32.372 40.7209 31.8275 40.7209 31.132C40.7209 30.4779 40.5242 29.9542 40.1309 29.5608C39.7376 29.1675 39.2181 28.9709 38.5722 28.9709C37.9015 28.9709 37.3674 29.1696 36.97 29.567C36.5725 29.9645 36.3738 30.4903 36.3738 31.1444ZM36.0509 38.9443C36.0509 39.9048 36.2972 40.6541 36.7899 41.1923C37.2826 41.7306 37.8974 41.9997 38.6343 41.9997C39.3547 41.9997 39.9508 41.7409 40.4228 41.2234C40.8947 40.7059 41.1307 39.9586 41.1308 38.9815C41.1307 38.1287 40.8906 37.4435 40.4103 36.926C39.9301 36.4085 39.3215 36.1498 38.5846 36.1497C37.7317 36.1498 37.0963 36.4437 36.6781 37.0316C36.26 37.6195 36.0509 38.257 36.0509 38.9443Z" fill="black"/>
</svg>
