<svg width="342" height="325" xmlns="http://www.w3.org/2000/svg">
  <path id="svg_5" fill="#CC0000" d="m169.62957,0l50.32164,109.0972l119.30677,14.14596l-88.2063,81.57164l23.41468,117.83977l-104.8368,-58.68311l-104.8368,58.68311l23.41468,-117.83977l-88.20746,-81.57164l119.30793,-14.14596l50.32164,-109.0972z"/>
  <path id="svg_4" fill="#FFCC00" d="m216.98748,171.67003c0,-34.24498 -29.72652,-51.12961 -42.80618,-57.07491c20.21403,3.56718 57.07491,21.40309 57.07491,60.64209c0,22.40101 -7.85493,36.89625 -18.13347,46.0758l14.56629,14.56629l-14.26873,10.70155l-13.66141,-16.53775c-9.40755,4.38228 -18.96403,5.83621 -25.57759,5.83621c-14.26873,0 -29.72652,-7.13436 -35.67182,-10.70155l-21.40312,21.40309l-10.70155,-10.70155l32.10467,-24.97027c7.13436,3.56718 22.82996,10.70155 28.53745,10.70155c5.34185,0 13.68371,-1 22.03062,-4.49732l-38.77943,-46.94352l-18.92301,15.76902l-17.83594,-21.40309l32.10467,-24.9703l17.83591,0l10.70155,10.70158l-17.51159,14.59304l44.76873,44.76873c8.80053,-7.46998 15.54905,-19.34007 15.54905,-37.95868z"/>
</svg>