<svg width="190" height="24" viewBox="0 0 190 24" fill="none" xmlns="http://www.w3.org/2000/svg">
<path d="M12.4391 9.69907C12.4539 9.70132 12.4676 9.70791 12.4784 9.71794C16.074 12.3616 22.2308 18.9012 20.3535 20.7482C18.1623 22.6007 15.3501 23.6217 12.4391 23.6217C9.52804 23.6217 6.71587 22.6007 4.52463 20.7482C2.64734 18.9012 8.80358 12.3616 12.3992 9.71794C12.4102 9.70792 12.4241 9.70135 12.4391 9.69907ZM18.7024 2.07879C16.8158 0.966645 14.6488 0.378296 12.4391 0.378296C10.2293 0.378296 8.0623 0.966645 6.17573 2.07879C6.16542 2.0841 6.1576 2.09304 6.15389 2.10375C6.15019 2.11447 6.15086 2.12615 6.15579 2.13639C6.16138 2.14595 6.17035 2.15323 6.18105 2.15691C6.19175 2.1606 6.20346 2.16043 6.21404 2.15645C8.5421 1.67044 12.0785 3.61364 12.4137 3.80873C12.4209 3.81447 12.4298 3.81762 12.4391 3.81762C12.4483 3.81762 12.4573 3.81447 12.4644 3.80873C12.7997 3.61364 16.336 1.67044 18.6641 2.15645C18.6747 2.16044 18.6864 2.1606 18.6971 2.15691C18.7078 2.15323 18.7168 2.14595 18.7224 2.13639C18.7273 2.12615 18.728 2.11447 18.7243 2.10375C18.7205 2.09304 18.7127 2.0841 18.7024 2.07879ZM4.02299 3.71296C4.00326 3.72336 3.9853 3.73662 3.96973 3.75228C1.89904 5.73827 0.646159 8.38434 0.44463 11.1972C0.243101 14.0101 1.10668 16.7979 2.87439 19.0408C2.8811 19.0507 2.8912 19.058 2.90292 19.0614C2.91465 19.0648 2.92723 19.064 2.93845 19.0593C2.94763 19.0525 2.95405 19.0428 2.95659 19.0319C2.95914 19.021 2.95765 19.0096 2.95238 18.9996C2.0361 16.2607 6.72195 9.62022 9.14216 6.83603C9.15155 6.82707 9.15734 6.81518 9.1585 6.80247C9.15824 6.79495 9.15625 6.78759 9.15265 6.78092C9.14906 6.77425 9.14397 6.76845 9.13775 6.76393C5.47037 3.23758 4.22509 3.61233 4.02297 3.71296H4.02299ZM15.7404 6.76393C15.7342 6.76845 15.7291 6.77425 15.7255 6.78092C15.7219 6.78759 15.7199 6.79495 15.7197 6.80247C15.7208 6.81518 15.7266 6.82707 15.736 6.83603C18.1562 9.62023 22.8421 16.2607 21.9258 18.9996C21.9205 19.0096 21.919 19.021 21.9216 19.0319C21.9241 19.0428 21.9305 19.0525 21.9397 19.0593C21.9509 19.064 21.9635 19.0648 21.9752 19.0614C21.987 19.058 21.9971 19.0507 22.0038 19.0408C23.7715 16.7979 24.6351 14.0101 24.4335 11.1972C24.232 8.38434 22.9791 5.73827 20.9084 3.75228C20.8929 3.73662 20.8749 3.72336 20.8552 3.71296C20.6531 3.61233 19.4078 3.23758 15.7404 6.76393ZM42.2573 19.1588H39.7971L35.5625 13.525L31.3278 19.1588H28.8677L34.3324 11.8884L29.2966 5.18877H31.7568L35.5625 10.2519L39.3681 5.18877H41.8283L36.7925 11.8884L42.2573 19.1588ZM55.0275 15.1865C55.0275 16.4129 54.6063 17.3922 53.7756 18.0973C52.9457 18.8016 51.7391 19.1588 50.1894 19.1588H43.4126V12.9377H40.1928L41.5323 11.1556H43.4126V5.18874H49.906C51.3617 5.18874 52.4934 5.52617 53.2697 6.19165C53.6536 6.52077 53.9576 6.92776 54.16 7.38355C54.3624 7.83935 54.4582 8.33272 54.4405 8.82844C54.4608 9.45366 54.2951 10.0714 53.9631 10.6083C53.631 11.1452 53.1465 11.5787 52.5672 11.8574C53.2998 12.1066 53.9373 12.564 54.3963 13.1696C54.8187 13.762 55.0394 14.4671 55.0275 15.1865H55.0275ZM45.6206 11.1556H49.7643C50.5983 11.1556 51.232 10.9747 51.6477 10.6179C52.0626 10.2617 52.2731 9.71888 52.2731 9.00451C52.2869 8.73061 52.2354 8.4573 52.1227 8.20565C52.01 7.954 51.839 7.73073 51.6229 7.55304C51.1904 7.20566 50.565 7.02953 49.7643 7.02953H45.6206V11.1556ZM52.7993 15.1474C52.7993 14.4138 52.5703 13.8563 52.1187 13.4904C51.666 13.1236 50.976 12.9377 50.0679 12.9377H45.6206V17.318H50.0679C50.9492 17.318 51.6324 17.1287 52.0986 16.7554C52.3348 16.557 52.5207 16.3088 52.6422 16.0301C52.7637 15.7513 52.8174 15.4494 52.7993 15.1474ZM69.8736 12.1738C69.8867 13.1751 69.7237 14.1714 69.3917 15.12C69.079 15.9839 68.5868 16.7769 67.9453 17.4502C67.3172 18.1084 66.5479 18.6259 65.6912 18.9665C63.84 19.6402 61.7986 19.6402 59.9474 18.9665C59.095 18.6287 58.3317 18.1106 57.7136 17.4502C57.0652 16.7831 56.5674 15.9929 56.252 15.1298C55.6027 13.2107 55.6027 11.1417 56.252 9.22261C56.5694 8.35317 57.0667 7.55534 57.7136 6.87779C58.3333 6.22267 59.0965 5.70962 59.9475 5.3761C61.7998 4.70894 63.8388 4.70894 65.6911 5.3761C66.5463 5.71243 67.3155 6.22483 67.9451 6.87765C68.5863 7.55679 69.0784 8.35453 69.3917 9.22268C69.7235 10.173 69.8864 11.1708 69.8736 12.1738ZM58.054 12.1738C58.054 13.8173 58.4948 15.1357 59.3642 16.0925C59.8069 16.5531 60.343 16.9205 60.9393 17.1718C61.5355 17.4231 62.1789 17.5528 62.8293 17.5528C63.4797 17.5528 64.1231 17.4231 64.7193 17.1719C65.3156 16.9207 65.8518 16.5533 66.2945 16.0927L66.2946 16.0925C67.1506 15.1487 67.5847 13.8302 67.5847 12.1738C67.5847 10.5172 67.1506 9.1922 66.2945 8.23538C65.8485 7.78031 65.3112 7.41787 64.7154 7.17019C64.1196 6.92251 63.4779 6.79477 62.8293 6.79479C62.1808 6.7948 61.5391 6.92255 60.9433 7.17026C60.3475 7.41796 59.8102 7.78042 59.3642 8.2355C58.4948 9.21806 58.054 10.5431 58.054 12.1738ZM76.8461 11.8884L81.8818 5.18876H79.4217L75.616 10.2519L71.8103 5.18876H69.3502L74.3859 11.8884L68.9212 19.1588H71.3814L75.616 13.525L79.8506 19.1588H82.3108L76.8461 11.8884ZM100.694 7.10771V11.1555H107.873V12.9376H100.694V17.2397H108.81V19.1587H98.486V5.18868H108.81V7.10771H100.694ZM95.6144 12.6868C94.893 12.0482 93.6946 11.5529 92.0524 11.2146L90.7977 10.9603C89.6057 10.7143 88.778 10.413 88.3369 10.0641C88.1156 9.89469 87.94 9.67601 87.8251 9.42675C87.7103 9.17749 87.6596 8.90506 87.6774 8.63273C87.6652 8.35317 87.7267 8.07519 87.8561 7.82489C87.9855 7.5746 88.1786 7.36019 88.4172 7.20179C88.9105 6.86677 89.635 6.69688 90.5706 6.69688C91.7743 6.69688 92.6585 6.90926 93.1985 7.32817C93.7377 7.74636 94.0449 8.4096 94.1116 9.29936L94.113 9.31837H96.2996L96.2992 9.29751C96.2722 7.92833 95.776 6.83715 94.8244 6.05434C93.8737 5.27221 92.4357 4.87566 90.5503 4.87566C88.9877 4.87566 87.7304 5.22266 86.8134 5.90699C86.3699 6.22651 86.0125 6.64458 85.7715 7.12585C85.5305 7.60711 85.413 8.13741 85.4289 8.67186C85.4289 9.82028 85.8126 10.7338 86.5693 11.3869C87.3243 12.0384 88.458 12.5139 89.9388 12.8002L91.1732 13.0545C92.3925 13.3135 93.2478 13.6118 93.7154 13.9412C93.9432 14.1004 94.1264 14.3119 94.2485 14.5566C94.3707 14.8013 94.4279 15.0716 94.4151 15.343C94.4328 15.6748 94.3641 16.0056 94.2154 16.3052C94.0667 16.6047 93.8427 16.8634 93.5638 17.0577C92.9967 17.4511 92.1735 17.6505 91.117 17.6505C89.8396 17.6505 88.8635 17.3888 88.2161 16.8727C87.5697 16.3574 87.2319 15.5727 87.2118 14.5405L87.2114 14.5204H85.0037L85.0039 14.541C85.0174 16.1441 85.5613 17.3802 86.6207 18.2151C87.6788 19.049 89.178 19.4718 91.0766 19.4718C92.8273 19.4718 94.2173 19.0952 95.2082 18.3524C95.6934 17.994 96.0825 17.5283 96.3428 16.9944C96.6031 16.4606 96.727 15.8741 96.704 15.2843C96.7263 14.8011 96.6404 14.3189 96.4524 13.8706C96.2643 13.4224 95.9785 13.0186 95.6144 12.6868ZM122.09 17.4347L121.949 15.264C121.956 14.6085 121.772 13.9642 121.419 13.4045C121.057 12.9221 120.532 12.5765 119.935 12.4272C120.634 12.2167 121.244 11.792 121.672 11.2171C122.114 10.5819 122.338 9.82839 122.313 9.06312C122.337 8.52137 122.229 7.9818 121.997 7.48797C121.765 6.99413 121.417 6.55987 120.98 6.22023C120.096 5.53573 118.869 5.18866 117.333 5.18866H111.018V19.1587H113.226V13.4267H117.394C118.221 13.4267 118.829 13.6122 119.2 13.9781C119.573 14.3444 119.782 14.9816 119.822 15.872L119.883 17.3583C119.896 18.1673 120.04 18.7701 120.311 19.1499L120.318 19.1587H122.592L122.573 19.1278C122.287 18.6041 122.122 18.0263 122.09 17.4347ZM113.226 7.02945H117.212C118.12 7.02945 118.827 7.21883 119.314 7.59233C119.562 7.79544 119.757 8.05204 119.884 8.34148C120.011 8.63091 120.066 8.9451 120.044 9.25877C120.065 9.58519 120.012 9.91199 119.889 10.2167C119.766 10.5214 119.576 10.7968 119.333 11.0238C118.784 11.4613 118.084 11.6829 117.374 11.6446H113.226V7.02945ZM124.308 19.1587H126.516V5.18866H124.308V19.1587ZM139.048 7.10771V5.18868H128.724V19.1587H139.048V17.2397H130.932V12.9376H138.111V11.1555H130.932V7.10771H139.048ZM150.814 12.6868C150.093 12.0482 148.894 11.5529 147.252 11.2146L145.997 10.9603C144.805 10.7143 143.978 10.413 143.536 10.0641C143.315 9.89469 143.14 9.67601 143.025 9.42675C142.91 9.17749 142.859 8.90506 142.877 8.63273C142.865 8.35317 142.926 8.07519 143.056 7.82489C143.185 7.57459 143.378 7.36018 143.617 7.20179C144.11 6.86677 144.835 6.69688 145.77 6.69688C146.974 6.69688 147.858 6.90926 148.398 7.32817C148.937 7.74636 149.244 8.4096 149.311 9.29936L149.313 9.31837H151.499L151.499 9.29751C151.472 7.92833 150.976 6.83715 150.024 6.05434C149.073 5.27221 147.635 4.87566 145.75 4.87566C144.187 4.87566 142.93 5.22266 142.013 5.90699C141.569 6.2265 141.212 6.64458 140.971 7.12584C140.73 7.60711 140.613 8.1374 140.628 8.67186C140.628 9.82028 141.012 10.7338 141.769 11.3869C142.524 12.0384 143.658 12.514 145.138 12.8002L146.373 13.0545C147.592 13.3135 148.447 13.6118 148.915 13.9412C149.143 14.1004 149.326 14.3119 149.448 14.5566C149.57 14.8013 149.627 15.0716 149.615 15.343C149.632 15.6748 149.564 16.0056 149.415 16.3052C149.266 16.6047 149.042 16.8634 148.763 17.0577C148.196 17.4511 147.373 17.6505 146.317 17.6505C145.039 17.6505 144.063 17.3888 143.416 16.8727C142.769 16.3574 142.431 15.5727 142.411 14.5405L142.411 14.5204H140.203L140.203 14.541C140.217 16.1441 140.761 17.3802 141.82 18.2151C142.878 19.049 144.378 19.4718 146.276 19.4718C148.027 19.4718 149.417 19.0952 150.408 18.3524C150.893 17.994 151.282 17.5283 151.542 16.9944C151.803 16.4606 151.927 15.8741 151.904 15.2843C151.926 14.8011 151.84 14.3189 151.652 13.8706C151.464 13.4224 151.178 13.0186 150.814 12.6868H150.814ZM174.321 3.44249H173.217V20.905H174.321V3.44249ZM164.212 11.8884L169.248 5.18877H166.788L162.982 10.2519L159.176 5.18877H156.716L161.752 11.8884L156.287 19.1588H158.747L162.982 13.525L167.217 19.1588H169.677L164.212 11.8884ZM188.475 12.6868C187.754 12.0482 186.555 11.553 184.913 11.2147L183.658 10.9603C182.466 10.7144 181.639 10.413 181.197 10.0641C180.976 9.89472 180.801 9.67604 180.686 9.42678C180.571 9.17752 180.52 8.90509 180.538 8.63277C180.526 8.3532 180.587 8.07522 180.717 7.82493C180.846 7.57463 181.039 7.36022 181.278 7.20182C181.771 6.86681 182.496 6.69691 183.431 6.69691C184.635 6.69691 185.519 6.9093 186.059 7.32821C186.598 7.74639 186.905 8.40963 186.972 9.29939L186.974 9.3184H189.16L189.16 9.29754C189.133 7.92836 188.637 6.83721 187.685 6.05438C186.734 5.27225 185.296 4.8757 183.411 4.8757C181.848 4.8757 180.591 5.2227 179.674 5.90704C179.23 6.22655 178.873 6.64462 178.632 7.12588C178.391 7.60715 178.274 8.13744 178.289 8.6719C178.289 9.8203 178.673 10.7338 179.43 11.3869C180.185 12.0385 181.319 12.514 182.799 12.8002L184.034 13.0545C185.253 13.3135 186.108 13.6118 186.576 13.9412C186.804 14.1004 186.987 14.3119 187.109 14.5566C187.231 14.8013 187.288 15.0716 187.276 15.343C187.293 15.6748 187.225 16.0056 187.076 16.3052C186.927 16.6047 186.703 16.8635 186.424 17.0577C185.857 17.4511 185.034 17.6505 183.978 17.6505C182.7 17.6505 181.724 17.3888 181.077 16.8727C180.43 16.3574 180.092 15.5727 180.072 14.5405L180.072 14.5204H177.864L177.864 14.541C177.878 16.1441 178.422 17.3802 179.481 18.2151C180.539 19.049 182.039 19.4718 183.937 19.4718C185.688 19.4718 187.078 19.0952 188.069 18.3524C188.554 17.994 188.943 17.5283 189.203 16.9945C189.464 16.4606 189.588 15.8741 189.565 15.2843C189.587 14.8011 189.501 14.3189 189.313 13.8706C189.125 13.4224 188.839 13.0186 188.475 12.6868V12.6868Z" fill="white"/>
</svg>
